<?xml version="1.0" encoding="utf-8"?>
<!-- Generator: $$$/GeneralStr/196=Adobe Illustrator 27.6.0, SVG Export Plug-In . SVG Version: 6.00 Build 0)  -->
<svg version="1.1" id="Calque_1" xmlns="http://www.w3.org/2000/svg" xmlns:xlink="http://www.w3.org/1999/xlink" x="0px" y="0px"
	 width="14px" height="74px" viewBox="0 0 14 74" style="enable-background:new 0 0 14 74;" xml:space="preserve">
<style type="text/css">
	.st0{fill:none;stroke:#FFFFFF;stroke-miterlimit:10;}
</style>
<g id="Groupe_20" transform="translate(-453.704 -910.953)">
	<path id="Rectangle_65" class="st0" d="M458.9,940.2L458.9,940.2c1.6,0,3,1.3,3,3v35.6c0,1.6-1.3,3-3,3l0,0c-1.6,0-3-1.3-3-3v-35.6
		C455.9,941.5,457.3,940.2,458.9,940.2z"/>
	<path id="Tracé_80" class="st0" d="M459.7,936.7c-1.9,0-3.6-1.2-4.3-2.9c-1.5-3.7-0.9-7.8,1.6-10.9c2.3-3.1,3.2-4.9,2.5-8.6
		c-0.3-1.5,14.7,13.7,2.7,21.6C461.5,936.4,460.6,936.7,459.7,936.7L459.7,936.7z"/>
</g>
</svg>
