<?xml version="1.0" encoding="utf-8"?>
<!-- Generator: $$$/GeneralStr/196=Adobe Illustrator 27.6.0, SVG Export Plug-In . SVG Version: 6.00 Build 0)  -->
<svg version="1.1" id="Calque_1" xmlns="http://www.w3.org/2000/svg" xmlns:xlink="http://www.w3.org/1999/xlink" x="0px" y="0px"
	 width="214px" height="68px" viewBox="0 0 214 68" style="enable-background:new 0 0 214 68;" xml:space="preserve">
<style type="text/css">
	.st0{fill:#FFFFFF;}
</style>
<g>
	<path d="M11.8,13.7c0.2-1.4,0.3-2.6,0.5-3.7c0-0.3,0.1-0.4,0.2-0.4c0.1,0,0.2,0.2,0.4,0.4c0.6,0.9,1.5,2.5,2.4,3.8l5.3,8.7l4.2-7.1
		c1.8-2.8,2.4-3.8,3.1-5c0.4-0.7,0.6-0.8,0.7-0.8c0.1,0,0.2,0.1,0.3,0.7c0.1,1.3,0.3,2.6,0.4,3.9c0.7,5.7,1.5,12.6,2,14.3
		c-0.2,0-0.8,0-1.8,0c-1,0-2,0-2.5,0.1c0-2-0.5-7.3-0.8-10.9c-1.9,3.6-4.5,7.8-6,10.9c-0.1,0.3-0.2,0.2-0.4,0
		c-1.6-3.4-4.2-7.9-5.8-10.9c-0.3,3.9-0.6,8.9-0.7,10.8c-0.4,0-1.2,0-1.6,0c-1,0-1.8,0-2.1,0.1C10.1,26.8,11.1,19.4,11.8,13.7z"/>
	<path d="M38.8,23.7c-0.1,0-0.1,0-0.1,0.1c-0.6,1.7-1.3,3.6-1.6,4.7c-0.4,0-0.8,0-1.7,0c-1,0-1.8,0-2.1,0.1c0.7-1.3,1.7-3.5,3.1-6.6
		l4.9-11.1c0.5-1,0.6-1.3,0.8-1.3c0.1,0,0.3,0.2,0.8,1.3c0.4,0.8,2.9,6.2,5,11.1c1.2,2.6,2.5,5.5,3.3,6.5c-0.8,0-1.5,0-1.9,0
		c-1.1,0-2.3,0-2.7,0.1c-0.4-1.1-1.4-3.4-2-4.8c0,0,0-0.1-0.1-0.1H38.8z M43.8,21.3c0.1,0,0.1,0,0.1-0.1l-2.2-5.5l-2.1,5.5
		c0,0.1,0,0.1,0,0.1H43.8z"/>
	<path d="M54.4,17.1c0-3.5-0.1-6.1-0.4-7.1c0.6,0,1.2,0.1,1.8,0.1c0.4,0,2.8-0.1,3.9-0.1c2.2,0,3.8,0.3,4.8,0.9
		c1.3,0.7,2.4,2.1,2.4,4.2s-1.1,3.8-3,5c1.4,2,3.1,4.4,4.6,6.2c1.1,1.3,1.9,2,2.4,2.3c-0.5,0.2-1.6,0.2-2.6,0.2
		c-1.7,0-2.5-0.4-3.3-1.2c-1.4-1.4-3.4-4.8-4.3-6c-0.1-0.1-0.2-0.2-0.3-0.2c-0.5,0-1.7,0-2.4,0c-0.1,0-0.1,0-0.1,0.1v0.6
		c0,2.8,0.1,5.3,0.3,6.6c-0.4,0-1,0-1.7,0c-0.7,0-2.1,0-2.5,0.1c0.2-1.1,0.3-4.1,0.3-7.1V17.1z M58,18.5c0,0.2,0,0.2,0.1,0.3
		c0.5,0.2,1.4,0.3,2.5,0.3c0.6,0,1-0.1,1.3-0.3c0.7-0.5,1.4-1.5,1.4-3c0-2.6-1.9-3.8-3.8-3.8c-0.6,0-1.2,0-1.4,0.1
		c-0.1,0-0.1,0.1-0.1,0.2V18.5z"/>
	<path d="M71,10c0.9,0,2.6-0.1,2.9-0.1c0.2,0.8,0.6,2.1,1.4,4.2c0.9,2.3,2.1,5,3.4,8.1c1.1-2.6,2.7-5.8,3.7-8.7
		c0.6-1.7,0.9-2.8,1.1-3.5C84,10,84.7,10,85,10c1.1,0,2,0,2.6-0.1c-0.4,0.6-1.9,3.2-2.6,4.7C83.4,17.9,80,25,79.1,27.1
		c-0.8,1.6-1,1.8-1.1,1.8c-0.2,0-0.3-0.2-0.9-1.6c-1.7-4.1-3.5-8.1-5.3-12.2c-1-2.3-1.9-4-2.8-5.1C69.6,10,70.9,10,71,10z"/>
	<path d="M90.7,17.1c0-3.5-0.1-6.2-0.3-7.1c0.3,0,1.1,0,1.7,0c1.3,0,2.2-0.1,2.5-0.1c-0.1,1-0.2,3.7-0.2,7.2v4.3
		c0,2.8,0.1,6.3,0.3,7.1c-0.3,0-1,0-1.8,0c-0.9,0-2.1,0-2.4,0.1c0.1-1.1,0.2-4.1,0.2-7.1V17.1z"/>
	<path d="M102.3,28.4c-0.3,0-1.8,0-2,0.1c0.2-2.3,0.4-13.4,0.4-17.6c0-1.3,0.1-1.4,0.2-1.4c0.1,0,0.3,0.1,0.9,0.6
		c2.9,2.7,9.3,8.9,12.3,11.4c0-2-0.1-8.3-0.4-11.7c0.3,0,1.1,0.1,1.5,0.1c0.8,0,1.9-0.1,2.1-0.1c-0.2,1.5-0.5,7.6-0.4,14.1
		c0,2.3,0,2.6,0,3.2c0,1.5-0.1,1.7-0.2,1.7c-0.2,0-0.9-0.6-2.8-2.3c-2.8-2.5-6.9-6.7-10.3-9.9c0,4.7,0.2,9.8,0.5,11.7
		C103.5,28.4,102.9,28.4,102.3,28.4z"/>
	<path d="M10.8,46.6c0-3.5-0.1-6.1-0.3-7.1c0.4,0,0.8,0,1.5,0c1.1,0,2.2-0.1,3.9-0.1c3.2,0,4.7,0.6,6,1.7c0.7,0.6,1.5,1.9,1.5,3.6
		c0,3.8-3.2,5.9-6.9,5.8c-0.1-0.4-0.4-1.6-0.5-2c1.9-0.1,3.8-0.8,3.8-3.4c0-1.3-0.5-2.2-1.2-2.7c-0.6-0.6-1.7-1-2.9-1
		c-0.4,0-0.9,0-1.1,0.1c-0.1,0-0.1,0.1-0.1,0.6V51c0,2.8,0.1,5.8,0.2,7c-0.4,0-1.2,0-1.9,0c-0.7,0-1.9,0-2.3,0.1
		c0.1-1.1,0.3-4.1,0.3-7.1V46.6z"/>
	<path d="M28.4,53.2c-0.1,0-0.1,0-0.1,0.1C27.6,55,27,56.9,26.7,58c-0.4,0-0.8,0-1.7,0c-1,0-1.8,0-2.1,0.1c0.7-1.3,1.7-3.5,3.1-6.6
		L31,40.3c0.5-1,0.6-1.3,0.8-1.3c0.1,0,0.3,0.2,0.8,1.3c0.4,0.8,2.9,6.2,5,11.1c1.2,2.6,2.5,5.5,3.3,6.5c-0.8,0-1.5,0-1.9,0
		c-1.1,0-2.3,0-2.7,0.1c-0.4-1.1-1.4-3.4-2-4.8c0,0,0-0.1-0.1-0.1H28.4z M33.4,50.8c0.1,0,0.1,0,0.1-0.1l-2.2-5.5l-2.1,5.5
		c0,0.1,0,0.1,0,0.1H33.4z"/>
	<path d="M60,54.9c0,1.4,0,2.1,0,2.5c-1.4,0.5-4.2,1-6.5,1c-4.1,0-7.2-1.3-9.2-3.7c-1.2-1.5-2-3.5-2-6.1c0-4.1,2.1-6.5,4.2-7.8
		c2.6-1.6,5.3-1.7,7.1-1.7c3.1,0,5.6,0.8,6.4,0.9c-0.1,0.6-0.4,2.5-0.4,3.9c-0.8-0.9-3.2-2.4-6.7-2.4c-2.2,0-3.7,0.7-4.8,1.7
		c-1.1,1.1-1.7,2.8-1.7,4.8c0,1.9,0.6,3.6,1.3,4.6c1.4,2.2,3.7,3.3,6.2,3.3c0.7,0,1.8-0.1,2.3-0.4c0,0,0-0.3,0-0.6v-2
		c0-2-0.2-3.4-0.4-4c0.5,0,1.3,0.1,2,0.1c1.3,0,1.9-0.1,2.3-0.1C60.1,49.4,60,51,60,53.5V54.9z"/>
	<path d="M67.1,57.9c-0.3,0-1.8,0-2,0.1c0.2-2.3,0.4-13.4,0.4-17.6c0-1.3,0.1-1.4,0.2-1.4c0.1,0,0.3,0.1,0.9,0.6
		c2.9,2.7,9.3,8.9,12.3,11.4c0-2-0.1-8.3-0.4-11.7c0.3,0,1.1,0.1,1.5,0.1c0.8,0,1.9-0.1,2.1-0.1c-0.2,1.5-0.5,7.6-0.4,14.1
		c0,2.3,0,2.6,0,3.2c0,1.5-0.1,1.7-0.2,1.7c-0.2,0-0.9-0.6-2.8-2.3c-2.8-2.5-6.9-6.7-10.3-9.9c0,4.7,0.2,9.8,0.5,11.7
		C68.2,57.9,67.6,57.9,67.1,57.9z"/>
	<path d="M86.3,48.8c0-4.8,3.2-9.8,10.1-9.8c6.1,0,9.7,4.2,9.7,9.2c0,5.6-3.7,10.1-10,10.1C89.1,58.3,86.3,53.2,86.3,48.8z
		 M101.9,49.1c0-3.9-2.1-7.8-6.3-7.8c-2.9,0-5.2,2.2-5.2,6.7c0,4.3,2.2,8.1,6.3,8.1C98.8,56.1,101.9,54.8,101.9,49.1z"/>
	<path d="M111.6,39.5c1.2,0,2.2,0,2.7-0.1c-0.1,0.9-0.2,3.7-0.2,7.1v3.2c0,2.9,0.5,4.1,1.7,5c1,0.8,2.2,0.9,2.9,0.9
		c0.9,0,2-0.2,2.8-1c1.2-1.1,1.4-2.5,1.4-5.6v-2.5c0-3.5-0.2-6.2-0.4-7.1c0.4,0,1.1,0.1,1.5,0.1c1,0,1.8-0.1,2-0.1
		c-0.1,0.9-0.3,3.7-0.3,7.1v2.6c0,2.8-0.1,5.7-2.5,7.7c-1.5,1.3-3.4,1.6-5.1,1.6c-2.1,0-4.2-0.4-5.6-1.6c-1.3-1.1-2.2-2.7-2.2-6.2
		v-3.9c0-3.5-0.2-6.2-0.4-7.1C110.3,39.5,110.9,39.5,111.6,39.5z"/>
	<path d="M131.2,46.6c0-3.5-0.2-6.3-0.3-7.1c0.3,0,1.2,0.1,1.8,0.1c1.1,0,2.1,0,2.5-0.1c-0.1,1-0.3,3.6-0.3,7v4.1
		c0,4.1,0,4.7,0.1,4.8c0.1,0.1,0.4,0.2,0.7,0.2c0.5,0,1.3,0.1,2.3,0.1c2.2,0,3.7-0.2,4.5-0.6c-0.3,0.7-0.7,2.4-0.8,3
		c-0.1,0.1-0.6,0.1-1.8,0.1c-3.7,0-4.9-0.1-7-0.1c-1,0-1.6,0-1.9,0c0.1-0.9,0.2-3.4,0.2-7.1V46.6z"/>
</g>
<g>
	<path class="st0" d="M206.5,34c-1.8,0-2.6,0.7-2.6,0.7c-1.3,1.3-3.1,1.6-5,0.4c-1.9-1.2-6.6,2.1-6.9,1.8c-0.3-0.3-1.7-1.6-2.7-1.9
		c-1.1-0.2-1.5-1-1.5-1l-0.2-3.2l2.1-4.7c6.6,0.3,11-1.9,11-1.9s0,0.9,0,1.2c0,0.3,0.2,0.4,0.2,0.4s0.3,0,0.6,0
		c0.3,0,0.3-0.5,0.3-0.5l-0.1-1.1c0.5,0,0.6-0.4,0.6-0.4s0.1-1.4,0.1-1.7c0-0.3-0.4-0.5-0.4-0.5l1.3,0v-1.1l-1.4,0.2l-2.2-19.5
		l-0.7-1l-0.5,0.7l1.7,20.1h-1.3v0.9h1.3c-4.3,1.2-7.4,0.8-7.4,0.8c0-0.5-1.3-0.7-1.3-0.7c-0.2-0.3-1.6-1.1-2.5-1.4
		c-1-0.4-1.6-1.1-1.4-1.1s0.1-0.5,0.1-0.5c-0.7-1.5-0.4-2.2-0.9-3.4c-0.5-1.3-2.7-3-2.7-3v-0.4c-0.5-0.1-0.4-0.4-0.4-0.4
		c0-0.7,1.6,0.2,3,1.6s3,1,3,1c1.4-0.1,1.8-1.9,1.3-1.4c-0.5,0.5-1,0.3-0.7,0c0.3-0.3,0.3-0.7,0.3-0.7c-1.8,0.1-2.8-1-4.6-1.5
		c-1.8-0.6-2.8,0.1-2.6,0.7c0.2,0.6,0.1,1.8,0.1,1.8c-1.3,1.3-1.9,2.9-1.9,2.9c0.1,1-0.1,1.1-0.1,1.1c-1.3,0.5,0.5,1.9,0.5,1.9
		c1.5,1.1,0.7,1.2,0.7,1.2c-0.7-0.1-2.7,0.6-2.7,0.6c-0.7,1-0.8,0.6-0.8,0.6c-0.9-5.5-2.6-7-2.6-7s-0.2-1.3-0.4-2.5
		c-0.2-1.2-0.5-1-0.5-1l-1.1,2l-0.8-1.1c-0.7-0.3-0.6,1.1-0.6,1.1l-2.6-0.3c-0.6-0.6-1.6-0.4-1.6-0.4c-2.3,0.4-3.2,1.6-3.1,2.2
		c0.1,0.6,0.8,0.8,0.8,0.8c-0.1,0.7,0.3,0.7,0.3,0.7c0.9,0.1,0.7,0.4,0.7,0.4c-1.3,0-1.5,0.5-1.4,0.8c0.1,0.2,0.4,0.3,0.4,0.3
		c0.1,1.6,1.2,1.4,1.2,1.4s0.5,1.3,0.4,2.1c-0.1,0.8,0.5,1.5,1.2,2.4c0.7,0.9,1.3,0.2,1.3,0.2c0.3,2.3-2.2,5.6-2.2,5.6
		s-1.4,4.4-3.2,6.2c-1.8,1.8-1.7,5.6-1.7,5.6l-4.9,1.9c-4.3,0.3-2.8,3.9-2.8,3.9l-0.3,5.4c0.7,0.7,0.8,1.3,0.6,1.5
		c-0.2,0.2,0,0.7,0,0.7c0.4,1.5,1.2,2,1.2,2c1.2-0.2,1.9-2.7,1.9-2.7l-1.1-1.3l0-1.2c-0.8-2-0.4-4.9-0.4-4.9l1.2-1.1
		c6.4,0.6,7.8-0.8,7.8-0.8l-0.3,0.8c-0.2,0.5-2.4,1.9-2.4,1.9s-0.2,0.5-0.5,0.5s-2.4,2.3-2.4,2.3c0.7,0.7,3.4,1.1,3.4,1.1l0.5-1.9
		l1.2-0.1c0-0.6,0.5-1,0.6-1.3c0.1-0.3,0.8-0.2,0.9-0.8c0.1-0.6,1.4-1.5,1.4-1.5c2.3-1.6,3.8-0.2,4.2,1.1c0.4,1.4,2.3,3,2.3,3
		c-0.4,0.9-0.1,2-0.1,2c0.7,2.5-0.9,4-2.4,4.4c-1.5,0.4-2.2,1.3-2.2,1.3l0,1.8l-0.4,0.6l0.1,3.1c0.9,0.5,2.7-1.2,2.7-1.2l-0.2-2.2
		c-0.4-0.2-0.3-0.6-0.3-0.6c0.5,0,0.6-0.5,0.6-0.5c0.7-1.5,2.2-1.7,2.2-1.7c2.1-0.1,2.4-1.3,2.4-1.3c-0.2-2.1-0.1-2.7-0.1-2.7
		c0.4-0.9,1.6-2.3,1.6-2.3l1.8,0l0,0.6l2.1,1.1c-1.1,1.1-0.8,3.4-0.8,3.4c-1.8,2.4-1.5,4.5-1.5,4.5c-0.4,1.5-1.8,3.1-1.8,3.1
		c-1.2,0.8-0.9,2.4-0.9,2.4s-0.7,0.8-0.9,0.8c-0.2,0-0.4,0.5-0.4,0.5l-0.4,1.2c0.3,0.8,3.2-0.2,3.2-0.2v-0.5
		c0.2-0.2,0.2-1.4,0.2-1.4c0.8-0.6,1-2.3,1-2.3l1.5-3.3c1.3-0.6,1.7-3,1.7-3.7c-0.1-0.7,0.6-1,0.6-1c11.7-8.1,7.9-15.7,7.9-15.7
		c1,0.6,1.6,0.1,1.6,0.1c1.8-1,5.2,1,5.2,1c5.6,2.1,6.6-2.2,6.6-2.2l0-2.5C205.9,34.9,206.5,34,206.5,34z M170.3,21.7l-0.4,0.5
		c-0.1,0.1-0.3,0.2-0.4,0.1c-0.3-0.1-0.7-0.4-0.9-1.6c0-0.1-0.1-0.3-0.1-0.4c-0.1-0.4-0.4-1.4-0.6-1.6h0.4c0,0,0.5,2.8,2,2.6V21.7z"
		/>
</g>
</svg>
