<?xml version="1.0" encoding="utf-8"?>
<!-- Generator: $$$/GeneralStr/196=Adobe Illustrator 27.6.0, SVG Export Plug-In . SVG Version: 6.00 Build 0)  -->
<svg version="1.1" id="Calque_1" xmlns="http://www.w3.org/2000/svg" xmlns:xlink="http://www.w3.org/1999/xlink" x="0px" y="0px"
	 width="55px" height="55px" viewBox="0 0 55 55" style="enable-background:new 0 0 55 55;" xml:space="preserve">
<path d="M45.2,0l-5.4,11.9c-0.4,1.8-0.6,4.9,1.2,8c0.9,1.6,0.4,1.1-0.9-0.6c-0.5-0.7-1.1-1.5-1.7-2.4c-0.1-0.1-0.2-0.2-0.3-0.4
	c-0.1-0.1-0.2-0.2-0.3-0.2c-1.2-1.1-2.7-1.9-4.2-2.4c-1.7-0.5-4.2-0.7-7.5-0.7h-6.8v5.6L10.9,0L0.6,52.7h7.7l5.3-29.6l2.7,6
	c0.7-1.4,1.3-3.2,1.3-5.3c0-4.3,1.1,5.3,1.5,11.8l0.2,0.4l6,13.5l2.4,5.5l9.6-21l4.2-9.2l0.8-1.7l4.7,29.6h7.6L45.2,0z M25.2,18.8h2
	c4.2,0,6.8,1.1,7.9,3.4l-4,8.6c-1.1,0.3-2.3,0.4-3.7,0.4h-2.2V18.8z M27.7,38.1l-0.6-1.4h0.8c0.1,0,0.3,0,0.4,0L27.7,38.1z"/>
</svg>
