<?xml version="1.0" encoding="utf-8"?>
<!-- Generator: $$$/GeneralStr/196=Adobe Illustrator 27.6.0, SVG Export Plug-In . SVG Version: 6.00 Build 0)  -->
<svg version="1.1" id="Calque_1" xmlns="http://www.w3.org/2000/svg" xmlns:xlink="http://www.w3.org/1999/xlink" x="0px" y="0px"
	 width="40px" height="40px" viewBox="0 0 40 40" style="enable-background:new 0 0 40 40;" xml:space="preserve">
<style type="text/css">
	.st0{fill:#FFFFFF;}
</style>
<path class="st0" d="M33,0l-4,8.7c-0.3,1.3-0.4,3.6,0.9,5.8c0.7,1.2,0.3,0.8-0.7-0.4c-0.4-0.5-0.8-1.1-1.3-1.7
	c-0.1-0.1-0.1-0.1-0.2-0.3c-0.1-0.1-0.1-0.1-0.2-0.1c-0.9-0.8-2-1.4-3.1-1.7c-1.3-0.4-3.1-0.5-5.6-0.5h-5v4.1L7.6,0L0,38.3h5.7
	l3.9-21.5l2,4.4c0.5-1,1-2.3,1-3.9c0-3.1,0.8,3.9,1.1,8.6l0.1,0.3l4.4,9.8l1.8,4l7.1-15.3l3.1-6.7l0.6-1.2l3.5,21.5H40L33,0z
	 M18.2,13.7h1.5c3.1,0,5,0.8,5.9,2.5l-3,6.3c-0.8,0.2-1.7,0.3-2.7,0.3h-1.6V13.7z M20.1,27.7l-0.4-1h0.6c0.1,0,0.2,0,0.3,0
	L20.1,27.7z"/>
</svg>
