<?xml version="1.0" encoding="utf-8"?>
<!-- Generator: $$$/GeneralStr/196=Adobe Illustrator 27.6.0, SVG Export Plug-In . SVG Version: 6.00 Build 0)  -->
<svg version="1.1" id="Calque_1" xmlns="http://www.w3.org/2000/svg" xmlns:xlink="http://www.w3.org/1999/xlink" x="0px" y="0px"
	 width="68px" height="68px" viewBox="0 0 68 68" style="enable-background:new 0 0 68 68;" xml:space="preserve">
<style type="text/css">
	.st0{fill:none;stroke:#FFFFFF;stroke-miterlimit:10;}
	.st1{fill:none;stroke:#FFFFFF;stroke-linecap:round;stroke-linejoin:round;}
</style>
<g id="Groupe_22" transform="translate(-785.429 -913.978)">
	<ellipse id="Ellipse_9" class="st0" cx="832.2" cy="934.1" rx="18.8" ry="18.8"/>
	<path id="Rectangle_83" class="st0" d="M816.8,951.7L816.8,951.7c1.9,1.9,1.9,5.1,0,7.1l-20.4,20.4c-1.9,1.9-5.1,1.9-7.1,0l0,0
		c-1.9-1.9-1.9-5.1,0-7.1l20.4-20.4C811.7,949.7,814.8,949.7,816.8,951.7z"/>
	<path id="Tracé_91" class="st1" d="M845.2,926c0,0,5.9,10.4-3.1,18.4"/>
	<path id="Rectangle_84" class="st0" d="M819.5,947.9L819.5,947.9c0.5,0.5,0.5,1.3,0,1.8l-1.4,1.4c-0.5,0.5-1.3,0.5-1.8,0l0,0
		c-0.5-0.5-0.5-1.3,0-1.8l1.4-1.4C818.2,947.4,819,947.4,819.5,947.9z"/>
</g>
</svg>
