<?xml version="1.0" encoding="utf-8"?>
<!-- Generator: $$$/GeneralStr/196=Adobe Illustrator 27.6.0, SVG Export Plug-In . SVG Version: 6.00 Build 0)  -->
<svg version="1.1" id="Calque_1" xmlns="http://www.w3.org/2000/svg" xmlns:xlink="http://www.w3.org/1999/xlink" x="0px" y="0px"
	 width="55px" height="39px" viewBox="0 0 55 39" style="enable-background:new 0 0 55 39;" xml:space="preserve">
<style type="text/css">
	.st0{fill:none;stroke:#1D1D1B;stroke-miterlimit:10;}
	.st1{fill:none;stroke:#1D1D1B;stroke-linecap:round;stroke-linejoin:round;}
</style>
<g id="Groupe_22" transform="translate(-785.429 -913.978)">
	<ellipse id="Ellipse_9" class="st0" cx="820.4" cy="925.4" rx="11" ry="11"/>
	<path id="Rectangle_83" class="st0" d="M811.4,935.6L811.4,935.6c1.2,1.1,1.2,3,0,4.1l-11.8,11.8c-1.2,1.1-3,1.1-4.2,0l0,0
		c-1.2-1.1-1.2-3,0-4.1l11.8-11.8C808.4,934.5,810.2,934.5,811.4,935.6z"/>
	<path id="Tracé_91" class="st1" d="M827.8,920.7c0,0,3.5,6-1.7,10.7"/>
	<path id="Rectangle_84" class="st0" d="M813,933.4L813,933.4c0.3,0.3,0.3,0.8,0,1l-0.8,0.8c-0.3,0.3-0.8,0.3-1,0l0,0
		c-0.3-0.3-0.3-0.8,0-1l0.8-0.8C812.2,933.2,812.7,933.2,813,933.4z"/>
</g>
</svg>
