<?xml version="1.0" encoding="utf-8"?>
<!-- Generator: $$$/GeneralStr/196=Adobe Illustrator 27.6.0, SVG Export Plug-In . SVG Version: 6.00 Build 0)  -->
<svg version="1.1" id="Calque_1" xmlns="http://www.w3.org/2000/svg" xmlns:xlink="http://www.w3.org/1999/xlink" x="0px" y="0px"
	 width="95px" height="63px" viewBox="0 0 95 63" style="enable-background:new 0 0 95 63;" xml:space="preserve">
<style type="text/css">
	.st0{fill:none;stroke:#FFFFFF;stroke-linecap:round;stroke-linejoin:round;stroke-miterlimit:10;}
	.st1{fill:none;stroke:#000000;stroke-linecap:round;stroke-linejoin:round;stroke-miterlimit:10;}
	.st2{fill:#151418;}
	.st3{fill:#FFFFFF;}
</style>
<g>
	<ellipse class="st0" cx="47.5" cy="31.7" rx="34" ry="30.4"/>
	<line class="st1" x1="13.5" y1="31.7" x2="81.5" y2="31.7"/>
	<path class="st0" d="M47.5,62.1V1.3C47.5,1.3,13.5,31.7,47.5,62.1z"/>
	<path class="st0" d="M71.8,10.4c0,0-24.6,10.1-48.6,0"/>
	<path class="st0" d="M71.8,53c0,0-24.2-9.6-48.6,0"/>
	<path class="st0" d="M47.5,1.3c0,0,34.3,30.2,0,60.9"/>
	<g>
		<rect x="1.8" y="17.7" class="st2" width="91" height="28"/>
		<path class="st3" d="M8.6,44.2l-6-23.8h3.2l2.8,12c0.7,3,1.3,5.9,1.8,8.2h0.1c0.4-2.4,1.1-5.2,1.9-8.3l3.2-12h3.2l2.9,12.1
			c0.7,2.8,1.3,5.6,1.7,8.2h0.1c0.5-2.6,1.2-5.3,1.9-8.2l3.1-12h3.1l-6.7,23.8h-3.2l-3-12.4c-0.7-3-1.2-5.4-1.6-7.8H17
			c-0.4,2.4-1,4.7-1.8,7.8l-3.4,12.4H8.6z"/>
		<path class="st3" d="M39,44.2l-6-23.8h3.2l2.8,12c0.7,3,1.3,5.9,1.8,8.2h0.1c0.4-2.4,1.1-5.2,1.9-8.3l3.2-12h3.2l2.9,12.1
			c0.7,2.8,1.3,5.6,1.7,8.2h0.1c0.5-2.6,1.2-5.3,1.9-8.2l3.1-12H62l-6.7,23.8h-3.2l-3-12.4c-0.7-3-1.2-5.4-1.6-7.8h-0.1
			c-0.4,2.4-1,4.7-1.8,7.8l-3.4,12.4H39z"/>
		<path class="st3" d="M69.4,44.2l-6-23.8h3.2l2.8,12c0.7,3,1.3,5.9,1.8,8.2h0.1c0.4-2.4,1.1-5.2,1.9-8.3l3.2-12h3.2l2.9,12.1
			c0.7,2.8,1.3,5.6,1.7,8.2h0.1c0.5-2.6,1.2-5.3,1.9-8.2l3.1-12h3.1l-6.7,23.8h-3.2l-3-12.4c-0.7-3-1.2-5.4-1.6-7.8h-0.1
			c-0.4,2.4-1,4.7-1.8,7.8l-3.4,12.4H69.4z"/>
	</g>
</g>
</svg>
