<?xml version="1.0" encoding="utf-8"?>
<!-- Generator: $$$/GeneralStr/196=Adobe Illustrator 27.6.0, SVG Export Plug-In . SVG Version: 6.00 Build 0)  -->
<svg version="1.1" id="Calque_1" xmlns="http://www.w3.org/2000/svg" xmlns:xlink="http://www.w3.org/1999/xlink" x="0px" y="0px"
	 width="55px" height="39px" viewBox="0 0 55 39" style="enable-background:new 0 0 55 39;" xml:space="preserve">
<style type="text/css">
	.st0{fill:none;stroke:#FFFFFF;stroke-linecap:round;stroke-linejoin:round;stroke-miterlimit:10;}
	.st1{fill:#FFFFFF;}
</style>
<g>
	<path class="st0" d="M45.7,10.3c-3.5-5.6-10.3-9.5-18.2-9.5S12.8,4.7,9.2,10.5"/>
	<path class="st0" d="M9.2,28.4c3.5,5.8,10.3,9.8,18.3,9.8s14.7-4,18.3-9.8"/>
	<path class="st0" d="M27.5,10.3V0.9c0,0-4.2,3.7-6.9,9.6"/>
	<path class="st0" d="M20,28.4c1.4,3.2,3.9,6.5,7.5,9.8v-9.8"/>
	<path class="st0" d="M42.3,6.5c0,0-15.1,6.2-29.7,0"/>
	<path class="st0" d="M42.3,32.5c0,0-14.8-5.8-29.7,0"/>
	<path class="st0" d="M35,28.4c-1.4,3.2-3.9,6.5-7.5,9.8"/>
	<path class="st0" d="M27.5,0.9c0,0,4.2,3.7,6.9,9.5"/>
	<g>
		<path class="st1" d="M3.7,26.6L0,12.1h2l1.8,7.4c0.4,1.8,0.8,3.6,1.1,5.1l0,0c0.2-1.4,0.7-3.2,1.2-5.1l2-7.4h1.9l1.8,7.4
			c0.4,1.8,0.8,3.4,1,4.9l0,0c0.3-1.6,0.7-3.2,1.2-5.1l1.9-7.4h1.9l-4.1,14.5h-2L9.9,19c-0.4-1.9-0.8-3.3-1-4.7l0,0
			c-0.2,1.4-0.6,2.9-1.1,4.7l-2.1,7.6H3.7z"/>
		<path class="st1" d="M22.3,26.6l-3.7-14.5h2l1.8,7.4c0.4,1.8,0.8,3.6,1.1,5.1l0,0c0.2-1.4,0.7-3.2,1.2-5.1l2-7.4h2l1.8,7.4
			c0.4,1.8,0.8,3.4,1,4.9l0,0c0.3-1.6,0.7-3.2,1.2-5.1l1.9-7.4h1.9l-4.1,14.5h-2l-1.9-7.6c-0.4-1.9-0.8-3.3-1-4.7l0,0
			c-0.2,1.4-0.5,2.9-1.1,4.7l-2.1,7.6h-1.9V26.6z"/>
		<path class="st1" d="M40.9,26.6l-3.7-14.5h2l1.8,7.4c0.4,1.8,0.8,3.6,1.1,5.1l0,0c0.2-1.4,0.7-3.2,1.2-5.1l2-7.4h2l1.8,7.4
			c0.4,1.8,0.8,3.4,1,4.9l0,0c0.3-1.6,0.7-3.2,1.2-5.1L53,12h2l-4.1,14.5h-2l-1.9-7.6c-0.4-1.9-0.8-3.3-1-4.7l0,0
			c-0.2,1.4-0.5,2.9-1.1,4.7l-2.1,7.7H40.9z"/>
	</g>
</g>
</svg>
