<?xml version="1.0" encoding="utf-8"?>
<!-- Generator: $$$/GeneralStr/196=Adobe Illustrator 27.6.0, SVG Export Plug-In . SVG Version: 6.00 Build 0)  -->
<svg version="1.1" id="Calque_1" xmlns="http://www.w3.org/2000/svg" xmlns:xlink="http://www.w3.org/1999/xlink" x="0px" y="0px"
	 width="55px" height="39px" viewBox="0 0 55 39" style="enable-background:new 0 0 55 39;" xml:space="preserve">
<style type="text/css">
	.st0{fill:none;stroke:#FFFFFF;stroke-miterlimit:10;}
</style>
<g id="Groupe_20" transform="translate(-453.704 -910.953)">
	<path id="Rectangle_65" class="st0" d="M480.2,926.1L480.2,926.1c0.9,0,1.7,0.8,1.7,1.7v20.1c0,0.9-0.8,1.7-1.7,1.7l0,0
		c-0.9,0-1.7-0.8-1.7-1.7v-20.1C478.6,926.8,479.3,926.1,480.2,926.1z"/>
	<path id="Tracé_80" class="st0" d="M480.6,924.1c-1.1,0-2.1-0.7-2.4-1.7c-0.9-2.2-0.6-4.4,0.9-6.2c1.4-1.8,1.8-2.8,1.5-4.8
		c-0.2-0.9,8.3,7.7,1.6,12.2C481.7,923.8,481.2,924.1,480.6,924.1L480.6,924.1z"/>
</g>
</svg>
