<?xml version="1.0" encoding="utf-8"?>
<!-- Generator: $$$/GeneralStr/196=Adobe Illustrator 27.6.0, SVG Export Plug-In . SVG Version: 6.00 Build 0)  -->
<svg version="1.1" id="Calque_1" xmlns="http://www.w3.org/2000/svg" xmlns:xlink="http://www.w3.org/1999/xlink" x="0px" y="0px"
	 width="118px" height="40px" viewBox="0 0 118 40" style="enable-background:new 0 0 118 40;" xml:space="preserve">
<style type="text/css">
	.st0{fill:#FFFFFF;}
</style>
<g>
	<path class="st0" d="M2.4,8c0.1-0.8,0.2-1.5,0.3-2.2c0-0.2,0.1-0.2,0.1-0.2c0.1,0,0.1,0.1,0.2,0.2c0.4,0.5,0.9,1.5,1.4,2.2l3.1,5.1
		L10,9c1.1-1.6,1.4-2.2,1.8-2.9c0.2-0.4,0.4-0.5,0.4-0.5c0.1,0,0.1,0.1,0.2,0.4c0.1,0.8,0.2,1.5,0.2,2.3c0.4,3.3,0.9,7.4,1.2,8.4
		c-0.1,0-0.5,0-1.1,0s-1.2,0-1.5,0.1c0-1.2-0.3-4.3-0.5-6.4c-1.1,2.1-2.6,4.6-3.5,6.4c-0.1,0.2-0.1,0.1-0.2,0
		c-0.9-2-2.5-4.6-3.4-6.4c-0.2,2.3-0.4,5.2-0.4,6.3c-0.2,0-0.7,0-0.9,0c-0.6,0-1.1,0-1.2,0.1C1.4,15.7,2,11.4,2.4,8z"/>
	<path class="st0" d="M18.2,13.9C18.2,13.9,18.2,13.9,18.2,13.9c-0.4,1.1-0.8,2.2-1,2.8c-0.2,0-0.5,0-1,0c-0.6,0-1.1,0-1.2,0.1
		c0.4-0.8,1-2.1,1.8-3.9l2.9-6.5c0.3-0.6,0.4-0.8,0.5-0.8c0.1,0,0.2,0.1,0.5,0.8c0.2,0.5,1.7,3.6,2.9,6.5c0.7,1.5,1.5,3.2,1.9,3.8
		c-0.5,0-0.9,0-1.1,0c-0.6,0-1.3,0-1.6,0.1c-0.2-0.6-0.8-2-1.2-2.8c0,0,0-0.1-0.1-0.1C21.6,13.9,18.2,13.9,18.2,13.9z M21.2,12.5
		C21.2,12.5,21.2,12.5,21.2,12.5l-1.2-3.3l-1.2,3.2c0,0.1,0,0.1,0,0.1H21.2z"/>
	<path class="st0" d="M27.4,10c0-2.1-0.1-3.6-0.2-4.2c0.4,0,0.7,0.1,1.1,0.1c0.2,0,1.6-0.1,2.3-0.1c1.3,0,2.2,0.2,2.8,0.5
		c0.8,0.4,1.4,1.2,1.4,2.5s-0.6,2.2-1.8,2.9c0.8,1.2,1.8,2.6,2.7,3.6c0.6,0.8,1.1,1.2,1.4,1.3c-0.3,0.1-0.9,0.1-1.5,0.1
		c-1,0-1.5-0.2-1.9-0.7c-0.8-0.8-2-2.8-2.5-3.5c-0.1-0.1-0.1-0.1-0.2-0.1c-0.3,0-1,0-1.4,0c-0.1,0-0.1,0-0.1,0.1v0.4
		c0,1.6,0.1,3.1,0.2,3.9c-0.2,0-0.6,0-1,0c-0.4,0-1.2,0-1.5,0.1c0.1-0.6,0.2-2.4,0.2-4.2L27.4,10L27.4,10z M29.5,10.8
		c0,0.1,0,0.1,0.1,0.2c0.3,0.1,0.8,0.2,1.5,0.2c0.4,0,0.6-0.1,0.8-0.2c0.4-0.3,0.8-0.9,0.8-1.8c0-1.5-1.1-2.2-2.2-2.2
		c-0.4,0-0.7,0-0.8,0.1c-0.1,0-0.1,0.1-0.1,0.1V10.8z"/>
	<path class="st0" d="M37.1,5.8c0.5,0,1.5-0.1,1.7-0.1C39,6.3,39.2,7,39.7,8.2c0.5,1.3,1.2,2.9,2,4.8c0.6-1.5,1.6-3.4,2.2-5.1
		c0.4-1,0.5-1.6,0.6-2.1c0.3,0,0.7,0,0.9,0c0.6,0,1.2,0,1.5-0.1c-0.2,0.4-1.1,1.9-1.5,2.8c-0.9,1.9-2.9,6.1-3.5,7.3
		c-0.5,0.9-0.6,1.1-0.6,1.1c-0.1,0-0.2-0.1-0.5-0.9c-1-2.4-2.1-4.8-3.1-7.2c-0.6-1.3-1.1-2.3-1.6-3C36.3,5.8,37.1,5.8,37.1,5.8z"/>
	<path class="st0" d="M48.7,10c0-2.1-0.1-3.6-0.2-4.2c0.2,0,0.6,0,1,0c0.8,0,1.3-0.1,1.5-0.1C50.9,6.4,50.9,8,50.9,10v2.5
		c0,1.6,0.1,3.7,0.2,4.2c-0.2,0-0.6,0-1.1,0c-0.5,0-1.2,0-1.4,0.1c0.1-0.6,0.1-2.4,0.1-4.2C48.7,12.6,48.7,10,48.7,10z"/>
	<path class="st0" d="M55.5,16.6c-0.2,0-1.1,0-1.2,0.1c0.1-1.3,0.2-7.9,0.2-10.3c0-0.8,0.1-0.8,0.1-0.8s0.2,0.1,0.5,0.4
		c1.7,1.6,5.5,5.2,7.2,6.7c0-1.2-0.1-4.9-0.2-6.9c0.2,0,0.6,0.1,0.9,0.1c0.5,0,1.1-0.1,1.2-0.1c-0.1,0.9-0.3,4.5-0.2,8.3
		c0,1.3,0,1.5,0,1.9c0,0.9-0.1,1-0.1,1c-0.1,0-0.5-0.4-1.6-1.3c-1.6-1.5-4-3.9-6-5.8c0,2.8,0.1,5.8,0.3,6.9
		C56.2,16.6,55.9,16.6,55.5,16.6z"/>
	<path class="st0" d="M1.8,27.3c0-2.1-0.1-3.6-0.2-4.2c0.2,0,0.5,0,0.9,0c0.6,0,1.3-0.1,2.3-0.1c1.9,0,2.8,0.4,3.5,1
		c0.4,0.4,0.9,1.1,0.9,2.1c0,2.2-1.9,3.5-4,3.4c-0.1-0.2-0.2-0.9-0.3-1.2c1.1-0.1,2.2-0.5,2.2-2c0-0.8-0.3-1.3-0.7-1.6
		c-0.4-0.4-1-0.6-1.7-0.6c-0.2,0-0.5,0-0.6,0.1C4,24.3,4,24.4,4,24.7v5.2C4,31.5,4,33.3,4.1,34c-0.2,0-0.7,0-1.1,0s-1.1,0-1.3,0.1
		c0.1-0.6,0.2-2.4,0.2-4.2C1.8,29.9,1.8,27.3,1.8,27.3z"/>
	<path class="st0" d="M12.1,31.2C12.1,31.2,12.1,31.2,12.1,31.2c-0.5,1.1-0.8,2.2-1,2.8c-0.2,0-0.5,0-1,0c-0.6,0-1.1,0-1.2,0.1
		c0.4-0.8,1-2.1,1.8-3.9l2.9-6.6c0.3-0.6,0.4-0.8,0.5-0.8c0.1,0,0.2,0.1,0.5,0.8c0.2,0.5,1.7,3.6,2.9,6.5c0.7,1.5,1.5,3.2,1.9,3.8
		c-0.5,0-0.9,0-1.1,0c-0.6,0-1.3,0-1.6,0.1c-0.2-0.6-0.8-2-1.2-2.8c0,0,0-0.1-0.1-0.1L12.1,31.2L12.1,31.2z M15.1,29.8
		C15.1,29.8,15.1,29.8,15.1,29.8l-1.2-3.3l-1.2,3.2c0,0.1,0,0.1,0,0.1H15.1z"/>
	<path class="st0" d="M30.7,32.2c0,0.8,0,1.2,0,1.5c-0.8,0.3-2.5,0.6-3.8,0.6c-2.4,0-4.2-0.8-5.4-2.2c-0.7-0.9-1.2-2.1-1.2-3.6
		c0-2.4,1.2-3.8,2.5-4.6c1.5-0.9,3.1-1,4.2-1c1.8,0,3.3,0.5,3.8,0.5c-0.1,0.4-0.2,1.5-0.2,2.3c-0.5-0.5-1.9-1.4-3.9-1.4
		c-1.3,0-2.2,0.4-2.8,1c-0.6,0.6-1,1.6-1,2.8c0,1.1,0.4,2.1,0.8,2.7c0.8,1.3,2.2,1.9,3.6,1.9c0.4,0,1.1-0.1,1.3-0.2c0,0,0-0.2,0-0.4
		V31c0-1.2-0.1-2-0.2-2.3c0.3,0,0.8,0.1,1.2,0.1c0.8,0,1.1-0.1,1.3-0.1c0,0.3-0.1,1.2-0.1,2.7V32.2z"/>
	<path class="st0" d="M34.9,33.9c-0.2,0-1.1,0-1.2,0.1c0.1-1.3,0.2-7.9,0.2-10.3c0-0.8,0.1-0.8,0.1-0.8c0.1,0,0.2,0.1,0.5,0.4
		c1.7,1.6,5.5,5.2,7.2,6.7c0-1.2-0.1-4.9-0.2-6.9c0.2,0,0.6,0.1,0.9,0.1c0.5,0,1.1-0.1,1.2-0.1c-0.1,0.9-0.3,4.5-0.2,8.3
		c0,1.3,0,1.5,0,1.9c0,0.9-0.1,1-0.1,1c-0.1,0-0.5-0.4-1.6-1.3c-1.6-1.5-4-3.9-6-5.8c0,2.8,0.1,5.8,0.3,6.9
		C35.5,33.9,35.1,33.9,34.9,33.9z"/>
	<path class="st0" d="M46.1,28.6c0-2.8,1.9-5.8,5.9-5.8c3.6,0,5.7,2.5,5.7,5.4c0,3.3-2.2,5.9-5.9,5.9C47.8,34.2,46.1,31.2,46.1,28.6
		z M55.3,28.8c0-2.3-1.2-4.6-3.7-4.6c-1.7,0-3.1,1.3-3.1,3.9c0,2.5,1.3,4.8,3.7,4.8C53.5,32.9,55.3,32.1,55.3,28.8z"/>
	<path class="st0" d="M61,23.2c0.7,0,1.3,0,1.6-0.1c-0.1,0.5-0.1,2.2-0.1,4.2v1.9c0,1.7,0.3,2.4,1,2.9c0.6,0.5,1.3,0.5,1.7,0.5
		c0.5,0,1.2-0.1,1.6-0.6c0.7-0.6,0.8-1.5,0.8-3.3v-1.5c0-2.1-0.1-3.6-0.2-4.2c0.2,0,0.6,0.1,0.9,0.1c0.6,0,1.1-0.1,1.2-0.1
		c-0.1,0.5-0.2,2.2-0.2,4.2v1.5c0,1.6-0.1,3.3-1.5,4.5c-0.9,0.8-2,0.9-3,0.9c-1.2,0-2.5-0.2-3.3-0.9c-0.8-0.6-1.3-1.6-1.3-3.6v-2.3
		c0-2.1-0.1-3.6-0.2-4.2C60.2,23.2,60.6,23.2,61,23.2z"/>
	<path class="st0" d="M72.5,27.3c0-2.1-0.1-3.7-0.2-4.2c0.2,0,0.7,0.1,1.1,0.1c0.6,0,1.2,0,1.5-0.1c-0.1,0.6-0.2,2.1-0.2,4.1v2.4
		c0,2.4,0,2.8,0.1,2.8c0.1,0.1,0.2,0.1,0.4,0.1c0.3,0,0.8,0.1,1.3,0.1c1.3,0,2.2-0.1,2.6-0.4c-0.2,0.4-0.4,1.4-0.5,1.8
		c-0.1,0.1-0.4,0.1-1.1,0.1c-2.2,0-2.9-0.1-4.1-0.1c-0.6,0-0.9,0-1.1,0c0.1-0.5,0.1-2,0.1-4.2V27.3z"/>
</g>
<g>
	<path class="st0" d="M116.7,19.9c-1.1,0-1.5,0.4-1.5,0.4c-0.8,0.8-1.8,0.9-2.9,0.2c-1.1-0.7-3.9,1.2-4,1.1c-0.2-0.2-1-0.9-1.6-1.1
		c-0.6-0.1-0.9-0.6-0.9-0.6l-0.1-1.9l1.2-2.8c3.9,0.2,6.5-1.1,6.5-1.1s0,0.5,0,0.7c0,0.2,0.1,0.2,0.1,0.2s0.2,0,0.4,0
		c0.2,0,0.2-0.3,0.2-0.3l-0.1-0.6c0.3,0,0.4-0.2,0.4-0.2s0.1-0.8,0.1-1c0-0.2-0.2-0.3-0.2-0.3h0.8V12l-0.8,0.1l-1.3-11.4l-0.4-0.6
		L112,0.5l1,11.8h-0.8v0.5h0.8c-2.5,0.7-4.3,0.5-4.3,0.5c0-0.3-0.8-0.4-0.8-0.4c-0.1-0.2-0.9-0.6-1.5-0.8c-0.6-0.2-0.9-0.6-0.8-0.6
		s0.1-0.3,0.1-0.3c-0.4-0.9-0.2-1.3-0.5-2c-0.3-0.8-1.6-1.8-1.6-1.8V7.1c-0.3-0.1-0.2-0.2-0.2-0.2c0-0.4,0.9,0.1,1.8,0.9
		s1.8,0.6,1.8,0.6c0.8-0.1,1.1-1.1,0.8-0.8c-0.3,0.3-0.6,0.2-0.4,0c0.2-0.2,0.2-0.4,0.2-0.4c-1.1,0.1-1.6-0.6-2.7-0.9
		c-1.1-0.4-1.6,0.1-1.5,0.4c0.1,0.4,0.1,1.1,0.1,1.1c-0.8,0.8-1.1,1.7-1.1,1.7c0.1,0.6-0.1,0.6-0.1,0.6c-0.8,0.3,0.3,1.1,0.3,1.1
		c0.9,0.6,0.4,0.7,0.4,0.7c-0.4-0.1-1.6,0.4-1.6,0.4c-0.4,0.6-0.5,0.4-0.5,0.4c-0.5-3.2-1.5-4.1-1.5-4.1S99,7.8,98.9,7.1
		s-0.3-0.6-0.3-0.6l-0.6,1.2L97.5,7c-0.4-0.2-0.4,0.6-0.4,0.6l-1.5-0.2c-0.4-0.4-0.9-0.2-0.9-0.2c-1.3,0.2-1.9,0.9-1.8,1.3
		C92.9,8.9,93.3,9,93.3,9c-0.1,0.4,0.2,0.4,0.2,0.4c0.5,0.1,0.4,0.2,0.4,0.2c-0.8,0-0.9,0.3-0.8,0.5c0.1,0.1,0.2,0.2,0.2,0.2
		c0.1,0.9,0.7,0.8,0.7,0.8s0.3,0.8,0.2,1.2c-0.1,0.5,0.3,0.9,0.7,1.4c0.4,0.5,0.8,0.1,0.8,0.1c0.2,1.3-1.3,3.3-1.3,3.3
		s-0.8,2.6-1.9,3.6c-1.1,1.1-1,3.3-1,3.3l-2.9,1.1c-2.5,0.2-1.6,2.3-1.6,2.3l-0.2,3.2c0.4,0.4,0.5,0.8,0.4,0.9c-0.1,0.1,0,0.4,0,0.4
		c0.2,0.9,0.7,1.2,0.7,1.2c0.7-0.1,1.1-1.6,1.1-1.6l-0.6-0.8v-0.7c-0.5-1.2-0.2-2.9-0.2-2.9l0.7-0.6c3.8,0.4,4.6-0.5,4.6-0.5
		l-0.2,0.5c-0.1,0.3-1.4,1.1-1.4,1.1S91.7,28,91.5,28c-0.2,0-1.4,1.3-1.4,1.3c0.4,0.4,2,0.6,2,0.6l0.3-1.1l0.7-0.1
		c0-0.4,0.3-0.6,0.4-0.8s0.5-0.1,0.5-0.5c0.1-0.4,0.8-0.9,0.8-0.9c1.3-0.9,2.2-0.1,2.5,0.6c0.2,0.8,1.3,1.8,1.3,1.8
		c-0.2,0.5-0.1,1.2-0.1,1.2c0.4,1.5-0.5,2.3-1.4,2.6c-0.9,0.2-1.3,0.8-1.3,0.8v1.1L95.6,35l0.1,1.8c0.5,0.3,1.6-0.7,1.6-0.7
		l-0.1-1.3c-0.2-0.1-0.2-0.4-0.2-0.4c0.3,0,0.4-0.3,0.4-0.3c0.4-0.9,1.3-1,1.3-1c1.2-0.1,1.4-0.8,1.4-0.8c-0.1-1.2-0.1-1.6-0.1-1.6
		c0.2-0.5,0.9-1.3,0.9-1.3h1.1v0.4l1.2,0.6c-0.6,0.6-0.5,2-0.5,2c-1.1,1.4-0.9,2.6-0.9,2.6c-0.2,0.9-1.1,1.8-1.1,1.8
		c-0.7,0.5-0.5,1.4-0.5,1.4s-0.4,0.5-0.5,0.5c-0.1,0-0.2,0.3-0.2,0.3l-0.2,0.7c0.2,0.5,1.9-0.1,1.9-0.1v-0.3
		c0.1-0.1,0.1-0.8,0.1-0.8c0.5-0.4,0.6-1.3,0.6-1.3l0.9-1.9c0.8-0.4,1-1.8,1-2.2c-0.1-0.4,0.4-0.6,0.4-0.6c6.9-4.8,4.6-9.2,4.6-9.2
		c0.6,0.4,0.9,0.1,0.9,0.1c1.1-0.6,3.1,0.6,3.1,0.6c3.3,1.2,3.9-1.3,3.9-1.3v-1.5C116.3,20.5,116.7,19.9,116.7,19.9z M95.4,12.7
		L95.2,13c-0.1,0.1-0.2,0.1-0.2,0.1c-0.2-0.1-0.4-0.2-0.5-0.9c0-0.1-0.1-0.2-0.1-0.2c-0.1-0.2-0.2-0.8-0.4-0.9h0.2
		c0,0,0.3,1.6,1.2,1.5V12.7z"/>
</g>
</svg>
