<?xml version="1.0" encoding="utf-8"?>
<!-- Generator: $$$/GeneralStr/196=Adobe Illustrator 27.6.0, SVG Export Plug-In . SVG Version: 6.00 Build 0)  -->
<svg version="1.1" id="Calque_2" xmlns="http://www.w3.org/2000/svg" xmlns:xlink="http://www.w3.org/1999/xlink" x="0px" y="0px"
	 width="40px" height="40px" viewBox="0 0 40 40" style="enable-background:new 0 0 40 40;" xml:space="preserve">
<style type="text/css">
	.st0{fill:#FFFFFF;}
</style>
<g>
	<rect width="40" height="40"/>
	<circle class="st0" cx="20" cy="20" r="20"/>
	<path d="M26.3,40c-1.1,0-1.3-0.9-1.3-0.9c0.5-6.4-1.3-9.7-1.3-9.7c14.2-3,7.1-15.5,7.1-15.5c1-2.8-0.1-5.4-0.1-5.4
		c-3.1,0-5.5,2.2-5.5,2.2c-5.5-1.7-10.2,0-10.2,0c-3.2-2.5-5.5-2.2-5.5-2.2c-1.3,3.4-0.2,5.4-0.2,5.4s-6.9,12.6,7.1,15.6
		c0,0-1.4,1.3-1.3,2.7c0,0-3.4,1.8-5.5-1.1c-1.9-2.5-3.3-2.9-4.4-2.4c0,0,0.1,0.7,0.8,1.1s1.8,1.5,2.4,3.3c0.7,1.9,4.4,2.8,6.6,2
		l0,4c0,0-0.1,0.9-1.2,0.9"/>
</g>
</svg>
