<?xml version="1.0" encoding="utf-8"?>
<!-- Generator: $$$/GeneralStr/196=Adobe Illustrator 27.6.0, SVG Export Plug-In . SVG Version: 6.00 Build 0)  -->
<svg version="1.1" id="Calque_1" xmlns="http://www.w3.org/2000/svg" xmlns:xlink="http://www.w3.org/1999/xlink" x="0px" y="0px"
	 width="99px" height="123px" viewBox="0 0 99 123" style="enable-background:new 0 0 99 123;" xml:space="preserve">
<style type="text/css">
	.st0{fill:#FFFFFF;}
	.st1{fill:#E99D3A;}
</style>
<g id="Calque_1_00000064332492879311824560000006729069630439978368_">
	<rect class="st0" width="99" height="123"/>
</g>
<g id="Calque_2_00000090262727787201784820000000809502063804352155_">
	<rect x="1.1" y="1.9" class="st1" width="96.9" height="96.9"/>
	<g>
		<path class="st0" d="M21.6,31.6H9v-8.5h1.2c4.3,0,7.7-0.8,10.2-2.4s4.1-4.2,4.7-7.8h9.5v63.7h-13C21.6,76.6,21.6,31.6,21.6,31.6z"
			/>
		<path class="st0" d="M50.5,34.1c0.3-4.1,1.1-7.7,2.4-10.8c1.3-3.1,3.3-5.7,6-7.6s6.4-2.8,11.1-2.8c3.9,0,7.1,0.6,9.7,1.7
			c2.5,1.1,4.6,2.9,6.1,5.4s2.6,5.7,3.2,9.6s0.9,8.7,0.9,14.4c0,4.4-0.2,8.7-0.5,12.8s-1.1,7.7-2.4,10.8s-3.3,5.6-6,7.4
			s-6.4,2.7-11.1,2.7c-3.8,0-7.1-0.5-9.6-1.5c-2.6-1-4.6-2.8-6.2-5.2c-1.5-2.5-2.6-5.7-3.2-9.6C50.3,57.5,50,52.7,50,47
			C50.1,42.5,50.2,38.2,50.5,34.1z M63.4,59.5c0.2,2.6,0.6,4.6,1.1,6c0.5,1.5,1.3,2.5,2.2,3c0.9,0.5,2,0.8,3.4,0.8s2.6-0.3,3.5-1
			s1.6-1.9,2.1-3.5s0.9-3.9,1.1-6.6c0.2-2.8,0.3-6.2,0.3-10.3V41c0-4-0.1-7.3-0.3-9.9c-0.2-2.5-0.6-4.6-1.1-6
			c-0.5-1.5-1.3-2.5-2.2-3c-0.9-0.5-2-0.8-3.4-0.8s-2.6,0.3-3.5,1s-1.6,1.9-2.1,3.5c-0.5,1.7-0.9,3.9-1.1,6.6
			c-0.2,2.8-0.3,6.2-0.3,10.3v6.9C63,53.7,63.1,57,63.4,59.5z"/>
	</g>
	<g>
		<path d="M7.6,104.4c1.1,0,1.9,0.3,2.5,0.8c0.6,0.6,0.8,1.3,0.8,2.3s-0.3,1.8-0.8,2.3c-0.6,0.6-1.4,0.8-2.5,0.8H4.4v4.4H3v-10.7
			L7.6,104.4L7.6,104.4z M7.2,109.5c0.8,0,1.4-0.2,1.8-0.5s0.6-0.8,0.6-1.5S9.4,106.4,9,106c-0.4-0.3-1-0.5-1.8-0.5H4.4v3.9
			L7.2,109.5L7.2,109.5z"/>
		<path d="M13.6,107.4v1.6l0,0c0.3-0.6,0.7-1.1,1.1-1.4c0.4-0.3,1-0.4,1.7-0.4v1.3c-0.5,0-0.9,0.1-1.3,0.2c-0.4,0.1-0.6,0.3-0.9,0.6
			c-0.2,0.3-0.4,0.6-0.5,1s-0.1,0.8-0.1,1.3v3.5h-1.3v-7.8h1.3V107.4z"/>
		<path d="M17,109.6c0.2-0.5,0.4-0.9,0.7-1.3c0.3-0.4,0.7-0.7,1.2-0.9c0.5-0.2,1-0.3,1.6-0.3s1.2,0.1,1.6,0.3
			c0.5,0.2,0.9,0.5,1.2,0.9c0.3,0.4,0.6,0.8,0.7,1.3c0.2,0.5,0.2,1,0.2,1.6s-0.1,1.1-0.2,1.6c-0.2,0.5-0.4,0.9-0.7,1.3
			c-0.3,0.4-0.7,0.6-1.2,0.9c-0.5,0.2-1,0.3-1.6,0.3s-1.2-0.1-1.6-0.3c-0.5-0.2-0.9-0.5-1.2-0.9c-0.3-0.4-0.6-0.8-0.7-1.3
			c-0.2-0.5-0.2-1-0.2-1.6S16.8,110.1,17,109.6z M18.3,112.5c0.1,0.4,0.3,0.7,0.5,0.9c0.2,0.2,0.5,0.4,0.8,0.6
			c0.3,0.1,0.6,0.2,0.9,0.2s0.6-0.1,0.9-0.2s0.6-0.3,0.8-0.6c0.2-0.2,0.4-0.5,0.5-0.9s0.2-0.8,0.2-1.3s-0.1-0.9-0.2-1.3
			s-0.3-0.7-0.5-0.9c-0.2-0.2-0.5-0.4-0.8-0.6c-0.3-0.1-0.6-0.2-0.9-0.2s-0.6,0.1-0.9,0.2s-0.6,0.3-0.8,0.6
			c-0.2,0.2-0.4,0.6-0.5,0.9c-0.1,0.4-0.2,0.8-0.2,1.3C18.1,111.7,18.2,112.1,18.3,112.5z"/>
		<path d="M26.6,117.6c-0.3,0.3-0.8,0.5-1.4,0.5c-0.2,0-0.4,0-0.6-0.1v-1.1h0.1h0.1h0.3c0.3,0,0.5-0.1,0.6-0.2
			c0.1-0.2,0.2-0.4,0.2-0.8v-8.5h1.3v8.7C27.1,116.8,27,117.3,26.6,117.6z M25.9,106v-1.6h1.3v1.6H25.9z"/>
		<path d="M34.6,114.6c-0.6,0.4-1.3,0.7-2.2,0.7c-0.6,0-1.2-0.1-1.6-0.3c-0.5-0.2-0.8-0.5-1.1-0.8c-0.3-0.4-0.5-0.8-0.7-1.3
			s-0.2-1-0.3-1.6c0-0.6,0.1-1.1,0.3-1.6c0.2-0.5,0.4-0.9,0.8-1.3s0.7-0.6,1.2-0.8c0.4-0.2,0.9-0.3,1.5-0.3c0.7,0,1.3,0.1,1.7,0.4
			s0.8,0.6,1.1,1.1c0.3,0.4,0.5,0.9,0.6,1.4s0.1,1,0.1,1.5h-5.8c0,0.3,0,0.7,0.1,1s0.2,0.6,0.4,0.8c0.2,0.2,0.5,0.4,0.8,0.6
			c0.3,0.1,0.7,0.2,1.1,0.2c0.5,0,1-0.1,1.3-0.4c0.3-0.2,0.6-0.6,0.7-1.1h1.3C35.6,113.5,35.2,114.2,34.6,114.6z M34.3,109.6
			c-0.1-0.3-0.3-0.5-0.5-0.7s-0.4-0.3-0.7-0.5c-0.3-0.1-0.6-0.2-0.9-0.2c-0.3,0-0.6,0.1-0.9,0.2s-0.5,0.3-0.7,0.5s-0.3,0.4-0.5,0.7
			c-0.1,0.3-0.2,0.5-0.2,0.8h4.5C34.5,110.2,34.4,109.9,34.3,109.6z"/>
		<path d="M40.5,107.4v1.1H39v4.8c0,0.2,0,0.3,0,0.4s0.1,0.2,0.1,0.2c0.1,0,0.2,0.1,0.3,0.1s0.3,0,0.5,0h0.6v1.1h-1
			c-0.3,0-0.6,0-0.8-0.1c-0.2,0-0.4-0.1-0.6-0.2c-0.1-0.1-0.3-0.3-0.3-0.5c-0.1-0.2-0.1-0.5-0.1-0.9v-4.9h-1.3v-1.1h1.3V105H39v2.3
			L40.5,107.4L40.5,107.4z"/>
		<path d="M42.9,113.4c0.1,0.2,0.3,0.3,0.5,0.5c0.2,0.1,0.4,0.2,0.7,0.2c0.2,0,0.5,0.1,0.8,0.1c0.2,0,0.4,0,0.6,0
			c0.2,0,0.4-0.1,0.6-0.2s0.3-0.2,0.5-0.4c0.1-0.2,0.2-0.4,0.2-0.6c0-0.3-0.1-0.6-0.4-0.8c-0.3-0.2-0.6-0.3-0.9-0.4
			c-0.4-0.1-0.8-0.2-1.2-0.3c-0.4-0.1-0.8-0.2-1.2-0.4s-0.7-0.4-0.9-0.7c-0.2-0.3-0.4-0.7-0.4-1.2c0-0.4,0.1-0.7,0.3-1
			s0.4-0.5,0.7-0.7s0.6-0.3,0.9-0.4c0.3-0.1,0.7-0.1,1-0.1c0.4,0,0.8,0,1.2,0.1s0.7,0.2,1,0.4c0.3,0.2,0.5,0.4,0.7,0.8
			c0.2,0.3,0.3,0.7,0.3,1.2h-1.3c0-0.2-0.1-0.5-0.2-0.6s-0.2-0.3-0.4-0.4s-0.4-0.2-0.6-0.2s-0.4-0.1-0.6-0.1c-0.2,0-0.4,0-0.6,0
			c-0.2,0-0.4,0.1-0.5,0.2c-0.2,0.1-0.3,0.2-0.4,0.3s-0.1,0.3-0.1,0.5s0.1,0.4,0.2,0.5c0.2,0.1,0.4,0.3,0.6,0.4
			c0.2,0.1,0.5,0.2,0.8,0.2c0.3,0.1,0.6,0.1,0.9,0.2c0.3,0.1,0.6,0.2,0.9,0.3c0.3,0.1,0.6,0.2,0.8,0.4c0.2,0.2,0.4,0.4,0.6,0.6
			s0.2,0.6,0.2,0.9c0,0.5-0.1,0.9-0.3,1.2c-0.2,0.3-0.4,0.6-0.8,0.8c-0.3,0.2-0.7,0.3-1.1,0.4c-0.4,0.1-0.8,0.1-1.2,0.1
			s-0.8,0-1.2-0.1s-0.7-0.2-1-0.4c-0.3-0.2-0.5-0.5-0.7-0.8s-0.3-0.7-0.3-1.2h1.3C42.7,112.9,42.8,113.2,42.9,113.4z"/>
		<path d="M54.8,107.4v1.1l0,0c0.6-0.9,1.4-1.3,2.5-1.3c0.5,0,0.9,0.1,1.3,0.3s0.7,0.5,0.8,1c0.3-0.4,0.6-0.7,1-1s0.9-0.3,1.4-0.3
			c0.4,0,0.7,0,1.1,0.1s0.6,0.2,0.8,0.4c0.2,0.2,0.4,0.4,0.5,0.7c0.1,0.3,0.2,0.6,0.2,1v5.7h-1.3V110c0-0.2,0-0.5-0.1-0.7
			s-0.1-0.4-0.2-0.5c-0.1-0.2-0.3-0.3-0.5-0.4s-0.4-0.1-0.8-0.1c-0.6,0-1.1,0.2-1.5,0.5c-0.4,0.4-0.5,0.8-0.5,1.4v4.8h-1.3v-5
			c0-0.2,0-0.5-0.1-0.7s-0.1-0.4-0.2-0.5s-0.3-0.3-0.4-0.4c-0.2-0.1-0.4-0.1-0.7-0.1c-0.4,0-0.7,0.1-1,0.2s-0.5,0.3-0.6,0.5
			c-0.2,0.2-0.3,0.4-0.4,0.7s-0.1,0.4-0.1,0.6v4.8h-1.3v-7.8h1.4V107.4z"/>
		<path d="M71.9,114.6c-0.6,0.4-1.3,0.7-2.2,0.7c-0.6,0-1.2-0.1-1.6-0.3c-0.5-0.2-0.8-0.5-1.1-0.8c-0.3-0.4-0.5-0.8-0.7-1.3
			s-0.2-1-0.3-1.6c0-0.6,0.1-1.1,0.3-1.6c0.2-0.5,0.4-0.9,0.8-1.3s0.7-0.6,1.2-0.8c0.4-0.2,0.9-0.3,1.5-0.3c0.7,0,1.3,0.1,1.7,0.4
			s0.8,0.6,1.1,1.1c0.3,0.4,0.5,0.9,0.6,1.4s0.1,1,0.1,1.5h-5.8c0,0.3,0,0.7,0.1,1s0.2,0.6,0.4,0.8c0.2,0.2,0.5,0.4,0.8,0.6
			c0.3,0.1,0.7,0.2,1.1,0.2c0.5,0,1-0.1,1.3-0.4c0.3-0.2,0.6-0.6,0.7-1.1H73C72.8,113.5,72.4,114.2,71.9,114.6z M71.6,109.6
			c-0.1-0.3-0.3-0.5-0.5-0.7s-0.4-0.3-0.7-0.5c-0.3-0.1-0.6-0.2-0.9-0.2s-0.6,0.1-0.9,0.2s-0.5,0.3-0.7,0.5s-0.3,0.4-0.5,0.7
			c-0.1,0.3-0.2,0.5-0.2,0.8h4.5C71.7,110.2,71.7,109.9,71.6,109.6z"/>
		<path d="M75.6,107.4v1.2l0,0c0.5-0.9,1.4-1.4,2.5-1.4c0.5,0,0.9,0.1,1.3,0.2c0.3,0.1,0.6,0.3,0.8,0.6s0.4,0.5,0.4,0.9
			c0.1,0.3,0.1,0.7,0.1,1.1v5.1h-1.3v-5.2c0-0.5-0.1-0.9-0.4-1.1c-0.3-0.3-0.7-0.4-1.2-0.4c-0.4,0-0.7,0.1-1,0.2s-0.5,0.3-0.7,0.5
			s-0.3,0.5-0.4,0.8s-0.1,0.6-0.1,1v4.4h-1.3v-7.8L75.6,107.4L75.6,107.4z"/>
		<path d="M88.3,114.6c-0.6,0.4-1.3,0.7-2.2,0.7c-0.6,0-1.2-0.1-1.6-0.3c-0.5-0.2-0.8-0.5-1.1-0.8c-0.3-0.4-0.5-0.8-0.7-1.3
			s-0.2-1-0.3-1.6c0-0.6,0.1-1.1,0.3-1.6c0.2-0.5,0.4-0.9,0.8-1.3s0.7-0.6,1.2-0.8c0.4-0.2,0.9-0.3,1.5-0.3c0.7,0,1.3,0.1,1.7,0.4
			s0.8,0.6,1.1,1.1c0.3,0.4,0.5,0.9,0.6,1.4s0.1,1,0.1,1.5h-5.8c0,0.3,0,0.7,0.1,1s0.2,0.6,0.4,0.8c0.2,0.2,0.5,0.4,0.8,0.6
			c0.3,0.1,0.7,0.2,1.1,0.2c0.5,0,1-0.1,1.3-0.4c0.3-0.2,0.6-0.6,0.7-1.1h1.3C89.2,113.5,88.8,114.2,88.3,114.6z M87.9,109.6
			c-0.1-0.3-0.3-0.5-0.5-0.7s-0.4-0.3-0.7-0.5c-0.3-0.1-0.6-0.2-0.9-0.2s-0.6,0.1-0.9,0.2s-0.5,0.3-0.7,0.5s-0.3,0.4-0.5,0.7
			c-0.1,0.3-0.2,0.5-0.2,0.8H88C88.1,110.2,88.1,109.9,87.9,109.6z M86.4,103.6L85,106h1l2.1-2.4H86.4z"/>
		<path d="M91.8,113.4c0.1,0.2,0.3,0.3,0.5,0.5c0.2,0.1,0.4,0.2,0.7,0.2c0.2,0,0.5,0.1,0.8,0.1c0.2,0,0.4,0,0.6,0s0.4-0.1,0.6-0.2
			s0.3-0.2,0.5-0.4c0.1-0.2,0.2-0.4,0.2-0.6c0-0.3-0.1-0.6-0.4-0.8s-0.6-0.3-0.9-0.4c-0.4-0.1-0.8-0.2-1.2-0.3
			c-0.4-0.1-0.8-0.2-1.2-0.4s-0.7-0.4-0.9-0.7c-0.2-0.3-0.4-0.7-0.4-1.2c0-0.4,0.1-0.7,0.3-1c0.2-0.3,0.4-0.5,0.7-0.7
			c0.3-0.2,0.6-0.3,0.9-0.4s0.7-0.1,1-0.1c0.4,0,0.8,0,1.2,0.1c0.4,0.1,0.7,0.2,1,0.4c0.3,0.2,0.5,0.4,0.7,0.8
			c0.2,0.3,0.3,0.7,0.3,1.2h-1.3c0-0.2-0.1-0.5-0.2-0.6c-0.1-0.2-0.2-0.3-0.4-0.4c-0.2-0.1-0.4-0.2-0.6-0.2s-0.4-0.1-0.6-0.1
			s-0.4,0-0.6,0s-0.4,0.1-0.5,0.2c-0.2,0.1-0.3,0.2-0.4,0.3s-0.1,0.3-0.1,0.5s0.1,0.4,0.2,0.5c0.2,0.1,0.4,0.3,0.6,0.4
			s0.5,0.2,0.8,0.2c0.3,0.1,0.6,0.1,0.9,0.2s0.6,0.2,0.9,0.3c0.3,0.1,0.6,0.2,0.8,0.4c0.2,0.2,0.4,0.4,0.6,0.6
			c0.1,0.2,0.2,0.6,0.2,0.9c0,0.5-0.1,0.9-0.3,1.2c-0.2,0.3-0.5,0.6-0.8,0.8c-0.3,0.2-0.7,0.3-1.1,0.4s-0.8,0.1-1.2,0.1
			c-0.4,0-0.8,0-1.2-0.1c-0.4-0.1-0.7-0.2-1-0.4c-0.3-0.2-0.5-0.5-0.7-0.8s-0.3-0.7-0.3-1.2h1.3C91.6,112.9,91.7,113.2,91.8,113.4z"
			/>
	</g>
</g>
</svg>
