<?xml version="1.0" encoding="utf-8"?>
<!-- Generator: $$$/GeneralStr/196=Adobe Illustrator 27.6.0, SVG Export Plug-In . SVG Version: 6.00 Build 0)  -->
<svg version="1.1" id="Calque_1" xmlns="http://www.w3.org/2000/svg" xmlns:xlink="http://www.w3.org/1999/xlink" x="0px" y="0px"
	 width="1200px" height="240px" viewBox="0 0 1200 240" style="enable-background:new 0 0 1200 240;" xml:space="preserve">
<style type="text/css">
	.st0{fill:#FFFFFF;}
	.st1{fill:#3961AB;}
</style>
<rect class="st0" width="1200" height="240"/>
<path class="st1" d="M446.4,78.9c0-7.8,2.2-13.9,6.5-18.3s10.4-6.5,18.2-6.5c8,0,14.1,2.1,18.4,6.4s6.5,10.3,6.5,18
	c0,5.6-0.9,10.2-2.8,13.8c-1.9,3.6-4.6,6.4-8.2,8.4s-8,3-13.3,3c-5.4,0-9.9-0.9-13.4-2.6s-6.4-4.4-8.6-8.2
	C447.5,89.2,446.4,84.5,446.4,78.9z M461.1,79c0,4.8,0.9,8.3,2.7,10.4c1.8,2.1,4.2,3.2,7.3,3.2c3.2,0,5.6-1,7.4-3.1
	c1.7-2.1,2.6-5.8,2.6-11.1c0-4.5-0.9-7.8-2.7-9.9c-1.8-2.1-4.3-3.1-7.4-3.1c-3,0-5.4,1.1-7.2,3.2C462.1,70.6,461.1,74.1,461.1,79z"
	/>
<path class="st1" d="M504,54.9h13.8l18,26.5V54.9h13.9v47.9h-13.9l-17.9-26.3v26.3H504V54.9z"/>
<path class="st1" d="M559.6,54.9h14.8V91h23.1v11.8h-37.9V54.9z"/>
<path class="st1" d="M604.8,54.9h14.8v47.9h-14.8V54.9z"/>
<path class="st1" d="M630.3,54.9h13.8l18,26.5V54.9H676v47.9h-13.9l-17.9-26.3v26.3h-13.9L630.3,54.9L630.3,54.9z"/>
<path class="st1" d="M685.9,54.9h39.6v10.2h-24.8v7.6h23v9.8h-23V92h25.5v10.8h-40.4V54.9H685.9z"/>
<path class="st1" d="M409.6,124.4h45v11.8h-15.1v36h-14.8v-36h-15.1V124.4z"/>
<path class="st1" d="M461.5,172.3v-47.9h24.7c4.6,0,8.1,0.4,10.5,1.2c2.4,0.8,4.4,2.2,5.8,4.4c1.5,2.1,2.2,4.7,2.2,7.8
	c0,2.7-0.6,4.9-1.7,6.9c-1.1,1.9-2.7,3.5-4.7,4.7c-1.3,0.8-3,1.4-5.2,1.9c1.8,0.6,3,1.2,3.8,1.8c0.5,0.4,1.3,1.2,2.4,2.5
	c1,1.3,1.7,2.3,2.1,3l7.2,13.9h-16.7l-7.9-14.6c-1-1.9-1.9-3.1-2.7-3.7c-1.1-0.7-2.3-1.1-3.6-1.1h-1.3v19.4h-14.9V172.3z
	 M476.3,143.8h6.2c0.7,0,2-0.2,3.9-0.7c1-0.2,1.8-0.7,2.4-1.5s0.9-1.7,0.9-2.8c0-1.5-0.5-2.7-1.5-3.6c-1-0.8-2.8-1.2-5.5-1.2h-6.5
	v9.8H476.3z"/>
<path class="st1" d="M542.7,164.4h-16.8l-2.3,7.9h-15.1l18-47.9h16.1l18,47.9h-15.5L542.7,164.4z M539.6,154.1l-5.3-17.2l-5.2,17.2
	H539.6z"/>
<path class="st1" d="M565.9,124.4h14.8v47.9h-14.8V124.4z"/>
<path class="st1" d="M591.4,124.4h13.8l18,26.5v-26.5h13.9v47.9h-13.9L605.3,146v26.3h-13.9V124.4z"/>
<path class="st1" d="M647.6,124.4h14.8v47.9h-14.8V124.4z"/>
<path class="st1" d="M673.1,124.4h13.8l18,26.5v-26.5h13.9v47.9H705L687,146v26.3h-13.9V124.4z"/>
<path class="st1" d="M752.8,155v-10h22.9v20.4c-4.4,3-8.2,5-11.6,6.1c-3.4,1.1-7.4,1.6-12,1.6c-5.7,0-10.3-1-13.9-2.9
	c-3.6-1.9-6.4-4.8-8.3-8.7s-3-8.2-3-13.2c0-5.2,1.1-9.8,3.2-13.6c2.2-3.9,5.3-6.8,9.5-8.8c3.2-1.5,7.6-2.3,13.1-2.3
	c5.3,0,9.2,0.5,11.9,1.4c2.6,1,4.8,2.4,6.5,4.5c1.7,2,3,4.6,3.9,7.7l-14.3,2.5c-0.6-1.8-1.6-3.2-3-4.1s-3.2-1.4-5.4-1.4
	c-3.2,0-5.8,1.1-7.8,3.4c-1.9,2.3-2.9,5.8-2.9,10.7c0,5.2,1,8.9,2.9,11.1c1.9,2.2,4.7,3.3,8.1,3.3c1.7,0,3.2-0.2,4.7-0.7
	s3.2-1.3,5.2-2.4V155H752.8z"/>
</svg>
