<?xml version="1.0" encoding="utf-8"?>
<!-- Generator: $$$/GeneralStr/196=Adobe Illustrator 27.6.0, SVG Export Plug-In . SVG Version: 6.00 Build 0)  -->
<svg version="1.1" id="Calque_1" xmlns="http://www.w3.org/2000/svg" xmlns:xlink="http://www.w3.org/1999/xlink" x="0px" y="0px"
	 width="2000px" height="1193.7px" viewBox="0 0 2000 1193.7" style="enable-background:new 0 0 2000 1193.7;" xml:space="preserve"
	>
<style type="text/css">
	.st0{fill:#FFFFFF;}
	.st1{fill:#3961AB;}
</style>
<rect x="0" y="5.4" class="st0" width="2000" height="1184.2"/>
<g>
	<path class="st1" d="M290.5,429.1c0-37.8,10.6-67.4,31.5-88.8s50.5-31.5,88.3-31.5c38.8,0,68.4,10.1,89.3,31s31.5,50,31.5,87.3
		c0,27.2-4.3,49.5-13.6,66.9c-9.3,17.4-22.4,31-39.8,40.7c-17.4,9.8-38.8,14.6-64.4,14.6c-26.2,0-48-4.3-64.9-12.6
		c-16.9-8.3-31-21.4-41.7-39.8C295.8,479.1,290.5,456.3,290.5,429.1z M361.9,429.6c0,23.4,4.3,40.3,13.1,50.5
		c8.8,10.1,20.4,15.6,35.4,15.6c15.6,0,27.2-4.8,35.9-15.1c8.3-10.1,12.6-28.2,12.6-53.8c0-21.9-4.3-37.8-13.1-48
		c-8.8-10.1-20.9-15.1-35.9-15.1c-14.6,0-26.2,5.3-35,15.6C366.7,388.9,361.9,405.9,361.9,429.6z"/>
	<path class="st1" d="M570,312.7h66.9l87.3,128.5V312.7h67.4v232.4h-67.4l-86.8-127.5v127.5H570V312.7z"/>
	<path class="st1" d="M839.7,312.7h71.7v175.1h112v57.3H839.5V312.7H839.7z"/>
	<path class="st1" d="M1059,312.7h71.7v232.4H1059V312.7z"/>
	<path class="st1" d="M1182.7,312.7h66.9l87.3,128.5V312.7h67.4v232.4h-67.4l-86.8-127.5v127.5h-67.4V312.7L1182.7,312.7z"/>
	<path class="st1" d="M1452.4,312.7h192.1v49.5h-120.3v36.9h111.6v47.5h-111.6v46H1648v52.3h-196.1V312.7H1452.4z"/>
	<path class="st1" d="M112,649.9h218.3v57.3h-73.2v174.6h-71.7V707.1H112V649.9z"/>
	<path class="st1" d="M363.8,882.1V649.9h119.8c22.4,0,39.3,2,50.9,5.8s21.4,10.6,28.2,21.4c7.3,10.1,10.6,22.9,10.6,37.8
		c0,13.1-3,23.7-8.3,33.5c-5.3,9.3-13.1,16.9-22.9,22.9c-6.3,3.8-14.6,6.8-25.2,9.3c8.8,3,14.6,5.8,18.4,8.8
		c2.5,2,6.3,5.8,11.6,12.1c4.8,6.3,8.3,11.1,10.1,14.6l35,67.4h-80.5l-38.3-70.9c-4.8-9.3-9.3-15.1-13.1-17.9
		c-5.3-3.3-11.1-5.3-17.4-5.3h-6.3v94.1h-72.2v-1.2H363.8z M435.6,744h30.1c3.3,0,9.8-1,18.9-3.3c4.8-1,8.8-3.3,11.6-7.3
		c3-3.8,4.3-8.3,4.3-13.6c0-7.3-2.5-13.1-7.3-17.4c-4.8-3.8-13.6-5.8-26.7-5.8h-31.5v47.5h0.5V744z"/>
	<path class="st1" d="M757.7,843.9h-81.5l-11.1,38.3h-73.2l87.3-232.4h78l87.3,232.4h-75.2L757.7,843.9z M742.6,793.9l-25.7-83.3
		L691.7,794h50.9V793.9z"/>
	<path class="st1" d="M870.3,649.9H942v232.4h-71.7V649.9z"/>
	<path class="st1" d="M993.9,649.9h66.9l87.3,128.5V649.9h67.4v232.4h-67.4l-86.8-127.5v127.5h-67.4V649.9z"/>
	<path class="st1" d="M1266.5,649.9h71.7v232.4h-71.7V649.9z"/>
	<path class="st1" d="M1390.3,649.9h66.9l87.3,128.5V649.9h67.4v232.4H1545l-87.3-127.5v127.5h-67.4V649.9z"/>
	<path class="st1" d="M1776.9,798.3v-48.5H1888v98.9c-21.4,14.6-39.8,24.2-56.3,29.7c-16.6,5.3-35.9,7.8-58.1,7.8
		c-27.7,0-50-4.8-67.4-14.1c-17.4-9.3-31-23.4-40.3-42.2s-14.6-39.8-14.6-64.1c0-25.2,5.3-47.5,15.6-65.9c10.6-18.9,25.7-33,46-42.7
		c15.6-7.3,36.9-11.1,63.6-11.1c25.7,0,44.6,2.5,57.6,6.8c12.6,4.8,23.4,11.6,31.5,21.9c8.3,9.8,14.6,22.4,18.9,37.3l-69.4,12.1
		c-3-8.8-7.8-15.6-14.6-19.9s-15.6-6.8-26.2-6.8c-15.6,0-28.2,5.3-37.8,16.6c-9.3,11.1-14.1,28.2-14.1,51.8
		c0,25.2,4.8,43.2,14.1,53.8c9.3,10.6,22.9,16.1,39.3,16.1c8.3,0,15.6-1,22.9-3.3c7.3-2.5,15.6-6.3,25.2-11.6v-22.4H1776.9z"/>
</g>
</svg>
