<?xml version="1.0" encoding="utf-8"?>
<!-- Generator: $$$/GeneralStr/196=Adobe Illustrator 27.6.0, SVG Export Plug-In . SVG Version: 6.00 Build 0)  -->
<svg version="1.1" id="Calque_1" xmlns="http://www.w3.org/2000/svg" xmlns:xlink="http://www.w3.org/1999/xlink" x="0px" y="0px"
	 width="380px" height="225px" viewBox="0 0 380 225" style="enable-background:new 0 0 380 225;" xml:space="preserve">
<style type="text/css">
	.st0{fill:#FFFFFF;}
	.st1{fill:#3961AB;}
</style>
<rect class="st0" width="380" height="225"/>
<g>
	<path class="st1" d="M55.2,80.5c0-7.2,2-12.8,6-16.9s9.6-6,16.8-6c7.4,0,13,1.9,17,5.9c4,4,6,9.5,6,16.6c0,5.2-0.8,9.4-2.6,12.7
		c-1.8,3.3-4.2,5.9-7.6,7.7s-7.4,2.8-12.3,2.8c-5,0-9.1-0.8-12.4-2.4c-3.2-1.6-5.9-4.1-7.9-7.6C56.2,90,55.2,85.7,55.2,80.5z
		 M68.8,80.6c0,4.4,0.8,7.6,2.5,9.6c1.7,1.9,3.9,2.9,6.7,2.9c2.9,0,5.2-0.9,6.8-2.9c1.6-1.9,2.4-5.3,2.4-10.2c0-4.1-0.8-7.2-2.5-9.1
		c-1.7-1.9-4-2.9-6.8-2.9c-2.8,0-5,1-6.6,2.9C69.7,72.9,68.8,76.1,68.8,80.6z"/>
	<path class="st1" d="M108.3,58.4H121l16.6,24.4V58.4h12.8v44.1h-12.8l-16.5-24.2v24.2h-12.8V58.4z"/>
	<path class="st1" d="M159.5,58.4h13.6v33.3h21.3v10.9h-34.9V58.4z"/>
	<path class="st1" d="M201.2,58.4h13.6v44.1h-13.6V58.4z"/>
	<path class="st1" d="M224.7,58.4h12.7L254,82.8V58.4h12.8v44.1H254l-16.5-24.2v24.2h-12.8L224.7,58.4L224.7,58.4z"/>
	<path class="st1" d="M275.9,58.4h36.5v9.4h-22.9v7h21.2v9h-21.2v8.8h23.5v10h-37.2L275.9,58.4L275.9,58.4z"/>
	<path class="st1" d="M21.3,122.5h41.5v10.9H48.8v33.2H35.2v-33.2H21.3V122.5z"/>
	<path class="st1" d="M69.1,166.6v-44.1h22.8c4.2,0,7.5,0.4,9.7,1.1s4.1,2,5.3,4.1c1.4,1.9,2,4.3,2,7.2c0,2.5-0.6,4.5-1.6,6.4
		c-1,1.8-2.5,3.2-4.3,4.3c-1.2,0.7-2.8,1.3-4.8,1.8c1.7,0.6,2.8,1.1,3.5,1.7c0.5,0.4,1.2,1.1,2.2,2.3c0.9,1.2,1.6,2.1,1.9,2.8
		l6.6,12.8H97.1l-7.3-13.5c-0.9-1.8-1.8-2.9-2.5-3.4c-1-0.6-2.1-1-3.3-1h-1.2v17.9H69.1V166.6z M82.8,140.3h5.7
		c0.6,0,1.8-0.2,3.6-0.6c0.9-0.2,1.7-0.6,2.2-1.4c0.6-0.7,0.8-1.6,0.8-2.6c0-1.4-0.5-2.5-1.4-3.3c-0.9-0.7-2.6-1.1-5.1-1.1h-6
		L82.8,140.3L82.8,140.3z"/>
	<path class="st1" d="M144,159.3h-15.5l-2.1,7.3h-13.9l16.6-44.1h14.8l16.6,44.1h-14.3L144,159.3z M141.1,149.8l-4.9-15.9l-4.8,15.9
		H141.1z"/>
	<path class="st1" d="M165.3,122.5H179v44.1h-13.6V122.5z"/>
	<path class="st1" d="M188.8,122.5h12.7l16.6,24.4v-24.4H231v44.1h-12.8l-16.5-24.2v24.2h-12.8V122.5z"/>
	<path class="st1" d="M240.6,122.5h13.6v44.1h-13.6V122.5z"/>
	<path class="st1" d="M264.1,122.5h12.7l16.6,24.4v-24.4h12.8v44.1h-12.7L277,142.4v24.2h-12.8V122.5z"/>
	<path class="st1" d="M337.6,150.7v-9.2h21.1v18.8c-4.1,2.8-7.6,4.6-10.7,5.6c-3.1,1-6.8,1.5-11.1,1.5c-5.3,0-9.5-0.9-12.8-2.7
		c-3.3-1.8-5.9-4.4-7.6-8c-1.8-3.6-2.8-7.6-2.8-12.2c0-4.8,1-9,2.9-12.5c2-3.6,4.9-6.3,8.8-8.1c2.9-1.4,7-2.1,12.1-2.1
		c4.9,0,8.5,0.5,11,1.3c2.4,0.9,4.4,2.2,6,4.1c1.6,1.8,2.8,4.2,3.6,7.1l-13.2,2.3c-0.6-1.7-1.5-2.9-2.8-3.8c-1.3-0.8-2.9-1.3-5-1.3
		c-2.9,0-5.3,1-7.2,3.1c-1.8,2.1-2.7,5.3-2.7,9.9c0,4.8,0.9,8.2,2.7,10.2s4.3,3,7.5,3c1.6,0,2.9-0.2,4.3-0.6
		c1.4-0.5,2.9-1.2,4.8-2.2v-4.2H337.6z"/>
</g>
</svg>
