<?xml version="1.0" encoding="utf-8"?>
<!-- Generator: $$$/GeneralStr/196=Adobe Illustrator 27.6.0, SVG Export Plug-In . SVG Version: 6.00 Build 0)  -->
<svg version="1.1" id="Calque_1" xmlns="http://www.w3.org/2000/svg" xmlns:xlink="http://www.w3.org/1999/xlink" x="0px" y="0px"
	 width="1200px" height="716.2px" viewBox="0 0 1200 716.2" style="enable-background:new 0 0 1200 716.2;" xml:space="preserve">
<style type="text/css">
	.st0{fill:#FFFFFF;}
	.st1{fill:#3961AB;}
</style>
<rect x="-3.7" y="1.3" class="st0" width="1207.4" height="714.9"/>
<g>
	<path class="st1" d="M171.7,257.1c0-22.8,6.4-40.7,19-53.6c12.6-12.9,30.5-19,53.3-19c23.4,0,41.3,6.1,53.9,18.7s19,30.2,19,52.7
		c0,16.4-2.6,29.9-8.2,40.4s-13.5,18.7-24,24.6s-23.4,8.8-38.9,8.8c-15.8,0-29-2.6-39.2-7.6c-10.2-5-18.7-12.9-25.2-24
		C174.9,287.3,171.7,273.5,171.7,257.1z M214.8,257.4c0,14.1,2.6,24.3,7.9,30.5c5.3,6.1,12.3,9.4,21.4,9.4c9.4,0,16.4-2.9,21.7-9.1
		c5-6.1,7.6-17,7.6-32.5c0-13.2-2.6-22.8-7.9-29c-5.3-6.1-12.6-9.1-21.7-9.1c-8.8,0-15.8,3.2-21.1,9.4
		C217.7,232.8,214.8,243.1,214.8,257.4z"/>
	<path class="st1" d="M340.4,186.8h40.4l52.7,77.6v-77.6h40.7v140.3h-40.7l-52.4-77v77h-40.7V186.8z"/>
	<path class="st1" d="M503.2,186.8h43.3v105.7h67.6v34.6h-111V186.8z"/>
	<path class="st1" d="M635.6,186.8h43.3v140.3h-43.3V186.8z"/>
	<path class="st1" d="M710.3,186.8h40.4l52.7,77.6v-77.6h40.7v140.3h-40.7l-52.4-77v77h-40.7L710.3,186.8L710.3,186.8z"/>
	<path class="st1" d="M873.1,186.8h116v29.9h-72.6V239h67.4v28.7h-67.4v27.8h74.7v31.6H872.8V186.8H873.1z"/>
	<path class="st1" d="M63.9,390.4h131.8v34.6h-44.2v105.4h-43.3V424.9H63.9V390.4z"/>
	<path class="st1" d="M215.9,530.6V390.4h72.3c13.5,0,23.7,1.2,30.7,3.5c7,2.3,12.9,6.4,17,12.9c4.4,6.1,6.4,13.8,6.4,22.8
		c0,7.9-1.8,14.3-5,20.2c-3.2,5.6-7.9,10.2-13.8,13.8c-3.8,2.3-8.8,4.1-15.2,5.6c5.3,1.8,8.8,3.5,11.1,5.3c1.5,1.2,3.8,3.5,7,7.3
		c2.9,3.8,5,6.7,6.1,8.8l21.1,40.7H305l-23.1-42.8c-2.9-5.6-5.6-9.1-7.9-10.8c-3.2-2-6.7-3.2-10.5-3.2h-3.8v56.8h-43.6V530.6z
		 M259.3,447.2h18.2c2,0,5.9-0.6,11.4-2c2.9-0.6,5.3-2,7-4.4c1.8-2.3,2.6-5,2.6-8.2c0-4.4-1.5-7.9-4.4-10.5
		c-2.9-2.3-8.2-3.5-16.1-3.5h-19v28.7H259.3z"/>
	<path class="st1" d="M453.7,507.5h-49.2l-6.7,23.1h-44.2l52.7-140.3h47.1l52.7,140.3h-45.4L453.7,507.5z M444.6,477.3L429.1,427
		l-15.2,50.4H444.6z"/>
	<path class="st1" d="M521.7,390.4H565v140.3h-43.3V390.4z"/>
	<path class="st1" d="M596.3,390.4h40.4l52.7,77.6v-77.6h40.7v140.3h-40.7l-52.4-77v77h-40.7V390.4z"/>
	<path class="st1" d="M760.9,390.4h43.3v140.3h-43.3V390.4z"/>
	<path class="st1" d="M835.6,390.4H876l52.7,77.6v-77.6h40.7v140.3H929l-52.7-77v77h-40.7V390.4z"/>
	<path class="st1" d="M1069,480v-29.3h67.1v59.7c-12.9,8.8-24,14.6-34,17.9c-10,3.2-21.7,4.7-35.1,4.7c-16.7,0-30.2-2.9-40.7-8.5
		c-10.5-5.6-18.7-14.1-24.3-25.5c-5.6-11.4-8.8-24-8.8-38.7c0-15.2,3.2-28.7,9.4-39.8c6.4-11.4,15.5-19.9,27.8-25.8
		c9.4-4.4,22.3-6.7,38.4-6.7c15.5,0,26.9,1.5,34.8,4.1c7.6,2.9,14.1,7,19,13.2c5,5.9,8.8,13.5,11.4,22.5l-41.9,7.3
		c-1.8-5.3-4.7-9.4-8.8-12s-9.4-4.1-15.8-4.1c-9.4,0-17,3.2-22.8,10c-5.6,6.7-8.5,17-8.5,31.3c0,15.2,2.9,26.1,8.5,32.5
		c5.6,6.4,13.8,9.7,23.7,9.7c5,0,9.4-0.6,13.8-2c4.4-1.5,9.4-3.8,15.2-7V480H1069z"/>
</g>
</svg>
