<?xml version="1.0" encoding="utf-8"?>
<!-- Generator: $$$/GeneralStr/196=Adobe Illustrator 27.6.0, SVG Export Plug-In . SVG Version: 6.00 Build 0)  -->
<svg version="1.1" id="Calque_1" xmlns="http://www.w3.org/2000/svg" xmlns:xlink="http://www.w3.org/1999/xlink" x="0px" y="0px"
	 width="2000px" height="1253.6px" viewBox="0 0 2000 1253.6" style="enable-background:new 0 0 2000 1253.6;" xml:space="preserve"
	>
<style type="text/css">
	.st0{fill:#FFFFFF;}
	.st1{fill:#EF7F1A;}
	.st2{fill:#73C5C3;}
	.st3{fill:#D92049;}
	.st4{fill:#BDD148;}
	.st5{fill:#C26AA6;}
	.st6{fill:#A8A8A9;}
	.st7{fill:none;stroke:#A8A8A9;stroke-width:79.9984;stroke-miterlimit:9.9998;}
</style>
<rect y="2.7" class="st0" width="2000" height="1250"/>
<circle class="st1" cx="1390.6" cy="890.5" r="55.6"/>
<circle class="st2" cx="1390.6" cy="712.1" r="55.6"/>
<circle class="st3" cx="1566.6" cy="712.1" r="55.6"/>
<circle class="st4" cx="1566.6" cy="533.7" r="55.6"/>
<circle class="st5" cx="1736.6" cy="533.7" r="55.6"/>
<path class="st6" d="M463.4,375.5h-92.8c0,0-31.6,0.6-38.4,46.2v123.4c0,0-4.4,37.8-36.2,43.4s-85-32.8-88.4-106.6l1.2-336.6
	c0,0,11.2-79.4,75-88.8c0,0,40-9.4,46.6,43.4l0.6,112.8c0,0,0,46.2,36.2,56.2l95,0.6c0,0,34.4-5,34.4-58.4V99.9
	c0,0,10-48.4,45.6-44.4c35.6,3.8,68.8,26.6,78.4,91.6v345c0,0-1.2,68.4-61.2,93.4c0,0-52.2,22.8-62.2-50l-0.6-118.4
	C497.2,416.5,496.2,385.5,463.4,375.5z"/>
<path class="st6" d="M753.8,55.5h283.8c0,0,35.6,8.4,35.6,51.6s-35.6,55-35.6,55H833.4c0,0-35.6,4.4-35.6,56.2s43.4,52.2,43.4,52.2
	H954c0,0,40-5,40,51.6s-36.6,52.2-36.6,52.2H835.2c0,0-35.6,8.4-35.6,52.8s36.6,55,36.6,55h204.4c0,0,33.4,8.8,33.4,52.2
	c0,0-1.2,44.4-31.6,53.8H753.8c0,0-73.8-13.8-73.8-116.2s0-318.4,0-318.4S686.6,65.5,753.8,55.5z"/>
<path class="st6" d="M1248.8,462.1c8.4,13.8,23.4,21.6,39.4,21.6H1407c0,0,33.4,0,33.4,56.2c0,56.2-53.8,48.8-53.8,48.8h-226
	c0,0-43.4,5.6-43.4-77.8V147.7c0,0,16.2-97.8,90-92.8c0,0,36.6,15.6,32.2,65.6l-1,310.6C1237.8,431.5,1240,447.1,1248.8,462.1z"/>
<ellipse transform="matrix(0.7071 -0.7071 0.7071 0.7071 -361.1454 1014.7939)" class="st7" cx="1044.4" cy="943.3" rx="175.6" ry="175.6"/>
<path class="st6" d="M316.2,675.5l131.6,135.6c0,0,33.8,42.2,76.2,0l128.8-135.6c0,0,59.4-48.8,86.6,29.4v397.8
	c0,0-5,87.2-95.6,97.2c0,0-43.4,6.2-56.6-41.6l-1.6-214.4c0,0-2.8-27.2-32.2-6.6c0,0-47.2,53.4-97.2,59.4
	c-50,6.2-108.4-57.8-108.4-57.8s-35.6-26.2-35.6,14.4c0,40.6,0,184.4,0,184.4s5,62.8-53.4,62.8c0,0-48.8-4.4-48.8-62.8v-424
	C208.4,713.7,217.8,625.5,316.2,675.5z"/>
</svg>
