<?xml version="1.0" encoding="utf-8"?>
<!-- Generator: $$$/GeneralStr/196=Adobe Illustrator 27.6.0, SVG Export Plug-In . SVG Version: 6.00 Build 0)  -->
<svg version="1.1" id="Calque_1" xmlns="http://www.w3.org/2000/svg" xmlns:xlink="http://www.w3.org/1999/xlink" x="0px" y="0px"
	 width="380px" height="225px" viewBox="0 0 380 225" style="enable-background:new 0 0 380 225;" xml:space="preserve">
<style type="text/css">
	.st0{fill:#FFFFFF;}
	.st1{fill:#EF7F1A;}
	.st2{fill:#73C5C3;}
	.st3{fill:#D92049;}
	.st4{fill:#BDD148;}
	.st5{fill:#C26AA6;}
	.st6{fill:#A8A8A9;}
	.st7{fill:none;stroke:#A8A8A9;stroke-width:28;stroke-miterlimit:10;}
</style>
<g>
	<rect class="st0" width="380" height="225"/>
	<circle class="st1" cx="260.3" cy="164.4" r="10"/>
	<circle class="st2" cx="260.3" cy="132.3" r="10"/>
	<circle class="st3" cx="292" cy="132.3" r="10"/>
	<circle class="st4" cx="292" cy="100.2" r="10"/>
	<circle class="st5" cx="322.6" cy="100.2" r="10"/>
	<path class="st6" d="M93.4,71.7H76.7c0,0-5.7,0.1-6.9,8.3v22.2c0,0-0.8,6.8-6.5,7.8c-5.7,1-15.3-5.9-15.9-19.2l0.2-60.6
		c0,0,2-14.3,13.5-16c0,0,7.2-1.7,8.4,7.8l0.1,20.3c0,0,0,8.3,6.5,10.1l17.1,0.1c0,0,6.2-0.9,6.2-10.5V22.1c0,0,1.8-8.7,8.2-8
		c6.4,0.7,12.4,4.8,14.1,16.5v62.1c0,0-0.2,12.3-11,16.8c0,0-9.4,4.1-11.2-9l-0.1-21.3C99.5,79.1,99.3,73.5,93.4,71.7z"/>
	<path class="st6" d="M145.7,14.1h51.1c0,0,6.4,1.5,6.4,9.3s-6.4,9.9-6.4,9.9h-36.8c0,0-6.4,0.8-6.4,10.1s7.8,9.4,7.8,9.4h20.3
		c0,0,7.2-0.9,7.2,9.3s-6.6,9.4-6.6,9.4l-22,0c0,0-6.4,1.5-6.4,9.5s6.6,9.9,6.6,9.9h36.8c0,0,6,1.6,6,9.4c0,0-0.2,8-5.7,9.7h-51.9
		c0,0-13.3-2.5-13.3-20.9s0-57.3,0-57.3S133.6,15.9,145.7,14.1z"/>
	<path class="st6" d="M234.8,87.3c1.5,2.5,4.2,3.9,7.1,3.9h21.4c0,0,6,0,6,10.1s-9.7,8.8-9.7,8.8h-40.7c0,0-7.8,1-7.8-14V30.7
		c0,0,2.9-17.6,16.2-16.7c0,0,6.6,2.8,5.8,11.8l-0.2,55.9C232.8,81.8,233.2,84.6,234.8,87.3z"/>
	<circle class="st7" cx="198" cy="173.9" r="31.6"/>
	<path class="st6" d="M66.9,125.7l23.7,24.4c0,0,6.1,7.6,13.7,0l23.2-24.4c0,0,10.7-8.8,15.6,5.3v71.6c0,0-0.9,15.7-17.2,17.5
		c0,0-7.8,1.1-10.2-7.5l-0.3-38.6c0,0-0.5-4.9-5.8-1.2c0,0-8.5,9.6-17.5,10.7c-9,1.1-19.5-10.4-19.5-10.4s-6.4-4.7-6.4,2.6
		c0,7.3,0,33.2,0,33.2s0.9,11.3-9.6,11.3c0,0-8.8-0.8-8.8-11.3v-76.3C47.5,132.6,49.2,116.7,66.9,125.7z"/>
</g>
</svg>
