<?xml version="1.0" encoding="utf-8"?>
<!-- Generator: $$$/GeneralStr/196=Adobe Illustrator 27.6.0, SVG Export Plug-In . SVG Version: 6.00 Build 0)  -->
<svg version="1.1" id="Calque_1" xmlns="http://www.w3.org/2000/svg" xmlns:xlink="http://www.w3.org/1999/xlink" x="0px" y="0px"
	 width="1000px" height="626.8px" viewBox="0 0 1000 626.8" style="enable-background:new 0 0 1000 626.8;" xml:space="preserve">
<style type="text/css">
	.st0{fill:#FFFFFF;}
	.st1{fill:#EF7F1A;}
	.st2{fill:#73C5C3;}
	.st3{fill:#D92049;}
	.st4{fill:#BDD148;}
	.st5{fill:#C26AA6;}
	.st6{fill:#A8A8A9;}
	.st7{fill:none;stroke:#A8A8A9;stroke-width:80;stroke-miterlimit:10;}
</style>
<rect y="1.8" class="st0" width="1000" height="625"/>
<circle class="st1" cx="695.3" cy="445.7" r="27.8"/>
<circle class="st2" cx="695.3" cy="356.5" r="27.8"/>
<circle class="st3" cx="783.3" cy="356.5" r="27.8"/>
<circle class="st4" cx="783.3" cy="267.3" r="27.8"/>
<circle class="st5" cx="868.3" cy="267.3" r="27.8"/>
<path class="st6" d="M231.7,188.2h-46.4c0,0-15.8,0.3-19.2,23.1v61.7c0,0-2.2,18.9-18.1,21.7s-42.5-16.4-44.2-53.3l0.6-168.3
	c0,0,5.6-39.7,37.5-44.4c0,0,20-4.7,23.3,21.7l0.3,56.4c0,0,0,23.1,18.1,28.1l47.5,0.3c0,0,17.2-2.5,17.2-29.2V50.4
	c0,0,5-24.2,22.8-22.2c17.8,1.9,34.4,13.3,39.2,45.8v172.5c0,0-0.6,34.2-30.6,46.7c0,0-26.1,11.4-31.1-25l-0.3-59.2
	C248.6,208.7,248.1,193.2,231.7,188.2z"/>
<path class="st6" d="M376.9,28.2h141.9c0,0,17.8,4.2,17.8,25.8s-17.8,27.5-17.8,27.5H416.7c0,0-17.8,2.2-17.8,28.1
	s21.7,26.1,21.7,26.1h56.4c0,0,20-2.5,20,25.8s-18.3,26.1-18.3,26.1h-61.1c0,0-17.8,4.2-17.8,26.4s18.3,27.5,18.3,27.5h102.2
	c0,0,16.7,4.4,16.7,26.1c0,0-0.6,22.2-15.8,26.9H376.9c0,0-36.9-6.9-36.9-58.1s0-159.2,0-159.2S343.3,33.2,376.9,28.2z"/>
<path class="st6" d="M624.4,231.5c4.2,6.9,11.7,10.8,19.7,10.8h59.4c0,0,16.7,0,16.7,28.1s-26.9,24.4-26.9,24.4H580.3
	c0,0-21.7,2.8-21.7-38.9V74.3c0,0,8.1-48.9,45-46.4c0,0,18.3,7.8,16.1,32.8L619.2,216C618.9,216.2,620,224,624.4,231.5z"/>
<ellipse transform="matrix(0.7071 -0.7071 0.7071 0.7071 -180.8456 507.5318)" class="st7" cx="522.2" cy="472.1" rx="87.8" ry="87.8"/>
<path class="st6" d="M158.1,338.2l65.8,67.8c0,0,16.9,21.1,38.1,0l64.4-67.8c0,0,29.7-24.4,43.3,14.7v198.9c0,0-2.5,43.6-47.8,48.6
	c0,0-21.7,3.1-28.3-20.8l-0.8-107.2c0,0-1.4-13.6-16.1-3.3c0,0-23.6,26.7-48.6,29.7c-25,3.1-54.2-28.9-54.2-28.9
	s-17.8-13.1-17.8,7.2c0,20.3,0,92.2,0,92.2s2.5,31.4-26.7,31.4c0,0-24.4-2.2-24.4-31.4V357.3C104.2,357.3,108.9,313.2,158.1,338.2z"
	/>
</svg>
