<?xml version="1.0" encoding="utf-8"?>
<!-- Generator: $$$/GeneralStr/196=Adobe Illustrator 27.6.0, SVG Export Plug-In . SVG Version: 6.00 Build 0)  -->
<svg version="1.1" id="Calque_1" xmlns="http://www.w3.org/2000/svg" xmlns:xlink="http://www.w3.org/1999/xlink" x="0px" y="0px"
	 width="90px" height="90px" viewBox="0 0 90 90" style="enable-background:new 0 0 90 90;" xml:space="preserve">
<style type="text/css">
	.st0{fill:#0B0E28;}
	.st1{fill:#FFFFFF;}
</style>
<g>
	<path id="Tracé_49" class="st0" d="M90,90L51.3,51.3L0,0v90H90L90,90z"/>
	<path id="Tracé_50" class="st1" d="M29.6,53.8l-4,2.7l-4-2.7L20,58.3l-4.8,0.1l1.4,4.5l-3.8,2.9l3.8,2.9l-1.4,4.5l4.8,0.1l1.6,4.5
		l4-2.7l4,2.7l1.6-4.5l4.8-0.1l-1.4-4.5l3.8-2.9l-3.8-2.9l1.4-4.5l-4.8-0.1L29.6,53.8z"/>
	<g>
		<path class="st0" d="M21.8,70v-8.2h1.7V65h3.3v-3.2h1.7V70h-1.7v-3.6h-3.3V70H21.8z"/>
	</g>
</g>
</svg>
