<?xml version="1.0" encoding="utf-8"?>
<!-- Generator: $$$/GeneralStr/196=Adobe Illustrator 27.6.0, SVG Export Plug-In . SVG Version: 6.00 Build 0)  -->
<svg version="1.1" id="Calque_1" xmlns="http://www.w3.org/2000/svg" xmlns:xlink="http://www.w3.org/1999/xlink" x="0px" y="0px"
	 width="60px" height="80px" viewBox="0 0 60 80" style="enable-background:new 0 0 60 80;" xml:space="preserve">
<style type="text/css">
	.st0{fill:#FFFFFF;}
	.st1{fill:#E99D3A;}
</style>
<rect class="st0" width="60" height="80"/>
<rect x="0.7" y="1.2" class="st1" width="58.7" height="63"/>
<g>
	<path class="st0" d="M13.1,20.6H5.5V15h0.7c2.6,0,4.7-0.5,6.2-1.6s2.5-2.7,2.8-5.1H21v41.4h-7.9C13.1,49.8,13.1,20.6,13.1,20.6z"/>
	<path class="st0" d="M30.6,22.2c0.2-2.7,0.7-5,1.5-7c0.8-2,2-3.7,3.6-4.9s3.9-1.8,6.7-1.8c2.4,0,4.3,0.4,5.9,1.1
		c1.5,0.7,2.8,1.9,3.7,3.5c0.9,1.6,1.6,3.7,1.9,6.2s0.5,5.7,0.5,9.4c0,2.9-0.1,5.7-0.3,8.3c-0.2,2.7-0.7,5-1.5,7
		c-0.8,2-2,3.6-3.6,4.8s-3.9,1.8-6.7,1.8c-2.3,0-4.3-0.3-5.8-1c-1.6-0.7-2.8-1.8-3.8-3.4c-0.9-1.6-1.6-3.7-1.9-6.2
		c-0.4-2.5-0.5-5.7-0.5-9.4C30.4,27.6,30.4,24.8,30.6,22.2z M38.4,38.7c0.1,1.7,0.4,3,0.7,3.9c0.3,1,0.8,1.6,1.3,2
		c0.5,0.3,1.2,0.5,2.1,0.5c0.8,0,1.6-0.2,2.1-0.7c0.5-0.5,1-1.2,1.3-2.3c0.3-1,0.5-2.5,0.7-4.3c0.1-1.8,0.2-4,0.2-6.7v-4.5
		c0-2.6-0.1-4.7-0.2-6.4c-0.1-1.6-0.4-3-0.7-3.9c-0.3-1-0.8-1.6-1.3-2c-0.5-0.3-1.2-0.5-2.1-0.5c-0.8,0-1.6,0.2-2.1,0.7
		s-1,1.2-1.3,2.3c-0.3,1.1-0.5,2.5-0.7,4.3c-0.1,1.8-0.2,4-0.2,6.7v4.5C38.2,34.9,38.2,37.1,38.4,38.7z"/>
</g>
<g>
	<path d="M1,67.8h2.3c0.6,0,1.2,0.1,1.6,0.3c0.6,0.3,0.8,0.8,0.8,1.5c0,0.7-0.2,1.2-0.7,1.5c-0.4,0.3-1,0.5-1.6,0.5H1.7v3.2H1V67.8z
		 M3.2,68.5H1.7v2.6h1.6c0.4,0,0.8-0.1,1.1-0.3c0.3-0.3,0.5-0.6,0.5-1c0-0.5-0.2-0.8-0.6-1C4,68.5,3.6,68.5,3.2,68.5z"/>
	<path d="M9,70.1v0.6c-0.1,0-0.1,0-0.2-0.1c0,0-0.1,0-0.1,0c0,0-0.1,0-0.1,0c0,0-0.1,0-0.1,0c-0.4,0-0.8,0.2-1.1,0.6
		c-0.2,0.4-0.4,0.8-0.4,1.3v2.3H6.4v-4.8H7l0,0.8c0.1-0.3,0.3-0.4,0.4-0.5c0.3-0.2,0.6-0.3,1-0.3c0.1,0,0.2,0,0.3,0
		C8.8,70,8.9,70.1,9,70.1z"/>
	<path d="M11.9,75c-0.6,0-1.2-0.2-1.6-0.7c-0.5-0.5-0.7-1.1-0.7-1.8c0-0.7,0.2-1.3,0.7-1.8c0.5-0.5,1-0.7,1.7-0.7
		c0.7,0,1.2,0.2,1.7,0.7c0.4,0.5,0.7,1.1,0.7,1.8c0,0.7-0.2,1.4-0.7,1.8C13,74.8,12.4,75,11.9,75z M11.8,74.4c0.4,0,0.8-0.2,1.2-0.5
		c0.3-0.4,0.5-0.8,0.5-1.4c0-0.6-0.2-1.1-0.5-1.4c-0.3-0.3-0.7-0.5-1.1-0.5c-0.4,0-0.8,0.2-1.1,0.5c-0.3,0.4-0.5,0.9-0.5,1.4
		c0,0.6,0.2,1,0.5,1.4C11,74.2,11.4,74.4,11.8,74.4z"/>
	<path d="M15.8,70.1h0.6v5.2c0,0.5-0.1,0.8-0.4,1c-0.2,0.2-0.5,0.3-0.9,0.3c-0.2,0-0.3,0-0.4,0s-0.2-0.1-0.3-0.1v-0.6
		c0.1,0.1,0.2,0.1,0.3,0.1s0.2,0,0.3,0c0.2,0,0.4-0.1,0.5-0.2c0.1-0.1,0.2-0.3,0.2-0.6V70.1z M16.1,68c0.1,0,0.2,0,0.3,0.1
		s0.1,0.2,0.1,0.4c0,0.2,0,0.3-0.1,0.4S16.2,69,16.1,69c-0.1,0-0.2,0-0.3-0.1c-0.1-0.1-0.1-0.2-0.1-0.3c0-0.2,0-0.3,0.1-0.4
		C15.9,68.1,16,68,16.1,68z"/>
	<path d="M21.6,72.3h-3.7c0,0.7,0.2,1.2,0.5,1.6c0.3,0.4,0.7,0.5,1.3,0.5c0.4,0,0.8-0.1,1.1-0.4c0.1-0.1,0.2-0.1,0.3-0.2
		c0.1-0.1,0.2-0.2,0.4-0.3v0.8c-0.1,0.1-0.3,0.2-0.4,0.3s-0.2,0.1-0.3,0.2C20.4,74.9,20,75,19.6,75c-0.7,0-1.2-0.2-1.7-0.7
		c-0.5-0.5-0.7-1.1-0.7-1.8c0-0.7,0.2-1.3,0.7-1.8c0.5-0.5,1-0.7,1.7-0.7c0.6,0,1.2,0.2,1.5,0.7C21.4,71.1,21.6,71.6,21.6,72.3z
		 M18,71.7h2.8c-0.1-0.4-0.2-0.7-0.5-0.9c-0.2-0.2-0.5-0.3-0.9-0.3c-0.4,0-0.7,0.1-0.9,0.4C18.3,71.1,18.1,71.4,18,71.7z"/>
	<path d="M22.8,68.7h0.6v1.4h1.3v0.6h-1.3v3.1c0,0.3,0,0.4,0.1,0.5c0.1,0.1,0.3,0.2,0.5,0.2c0.1,0,0.2,0,0.3,0
		c0.1,0,0.2-0.1,0.3-0.1v0.6c-0.1,0-0.2,0.1-0.3,0.1c-0.1,0-0.3,0-0.4,0c-0.4,0-0.6-0.1-0.8-0.2c-0.2-0.2-0.3-0.4-0.3-0.8v-3.3H22
		v-0.6h0.8L22.8,68.7z"/>
	<path d="M25.3,74.5v-0.8c0.4,0.3,0.8,0.5,1.1,0.6c0.1,0,0.2,0.1,0.3,0.1c0.1,0,0.2,0,0.3,0c0.4,0,0.7-0.1,0.9-0.3
		c0.2-0.2,0.4-0.4,0.4-0.6c0-0.1,0-0.2-0.1-0.4c-0.1-0.2-0.5-0.3-1-0.4c-0.6-0.2-1.1-0.3-1.3-0.4c-0.4-0.2-0.6-0.6-0.6-1
		c0-0.4,0.2-0.7,0.5-1c0.4-0.3,0.8-0.4,1.3-0.4c0.2,0,0.5,0,0.6,0.1s0.4,0.1,0.5,0.2s0.3,0.2,0.5,0.3v0.8c-0.3-0.2-0.5-0.4-0.8-0.5
		c-0.3-0.1-0.6-0.2-0.9-0.2c-0.3,0-0.6,0.1-0.8,0.2c-0.2,0.1-0.3,0.3-0.3,0.5c0,0.3,0.3,0.5,0.8,0.7c0.3,0.1,0.5,0.1,0.7,0.2
		s0.5,0.1,0.7,0.2c0.5,0.2,0.8,0.6,0.8,1.1c0,0.4-0.2,0.8-0.6,1.1c-0.4,0.3-0.9,0.5-1.4,0.5c-0.3,0-0.5,0-0.7-0.1
		C26,74.8,25.6,74.7,25.3,74.5z"/>
	<path d="M39.9,71.8v3.1h-0.7v-3.2c0-0.3-0.1-0.6-0.4-0.8c-0.2-0.2-0.4-0.3-0.7-0.3c-0.4,0-0.8,0.2-1.1,0.6
		c-0.3,0.4-0.5,0.8-0.5,1.4v2.4H36v-3.2c0-0.3-0.1-0.6-0.3-0.8c-0.2-0.2-0.5-0.3-0.7-0.3c-0.4,0-0.7,0.2-1,0.5
		c-0.3,0.4-0.5,0.9-0.5,1.4v2.4h-0.7v-4.8h0.6l0,0.8c0.2-0.3,0.4-0.5,0.7-0.7C34.4,70,34.7,70,35,70c0.5,0,0.8,0.1,1.2,0.4
		c0.2,0.2,0.4,0.4,0.4,0.6c0.1-0.2,0.3-0.4,0.5-0.6c0.3-0.3,0.7-0.4,1.2-0.4c0.5,0,0.9,0.2,1.2,0.5C39.7,70.8,39.9,71.2,39.9,71.8z"
		/>
	<path d="M45,72.3h-3.7c0,0.7,0.2,1.2,0.5,1.6c0.3,0.4,0.7,0.5,1.3,0.5c0.4,0,0.8-0.1,1.1-0.4c0.1-0.1,0.2-0.1,0.3-0.2
		c0.1-0.1,0.2-0.2,0.4-0.3v0.8c-0.1,0.1-0.3,0.2-0.4,0.3s-0.2,0.1-0.3,0.2C43.8,74.9,43.4,75,43,75c-0.7,0-1.2-0.2-1.7-0.7
		c-0.5-0.5-0.7-1.1-0.7-1.8c0-0.7,0.2-1.3,0.7-1.8c0.5-0.5,1-0.7,1.7-0.7c0.6,0,1.2,0.2,1.5,0.7C44.8,71.1,45,71.6,45,72.3z
		 M41.4,71.7h2.8c-0.1-0.4-0.2-0.7-0.5-0.9c-0.2-0.2-0.5-0.3-0.9-0.3c-0.4,0-0.7,0.1-0.9,0.4C41.7,71.1,41.5,71.4,41.4,71.7z"/>
	<path d="M49.9,71.7v3.2h-0.6v-3.2c0-0.3-0.1-0.6-0.4-0.8c-0.2-0.2-0.5-0.3-0.9-0.3c-0.5,0-0.8,0.2-1.2,0.6
		c-0.3,0.4-0.5,0.8-0.5,1.3v2.5h-0.6v-4.8h0.6l0,0.9c0.2-0.2,0.4-0.5,0.6-0.6c0.4-0.3,0.8-0.4,1.2-0.4c0.5,0,0.9,0.2,1.3,0.5
		C49.7,70.7,49.9,71.2,49.9,71.7z"/>
	<path d="M51.4,72.9c0,1.1,0.7,1.5,1.5,1.5c0.6,0,0.9-0.1,1.2-0.2l0.1,0.6C54,74.8,53.5,75,52.8,75c-1.3,0-2.1-0.9-2.1-2.2
		s0.8-2.3,2-2.3c1.4,0,1.8,1.3,1.8,2.1c0,0.2,0,0.3,0,0.4H51.4z M53.7,72.3c0-0.5-0.2-1.3-1.1-1.3c-0.8,0-1.2,0.7-1.2,1.3H53.7z
		 M53.9,68.6l-1.1,1.3h-0.6l0.8-1.3H53.9z"/>
	<path d="M55.1,74.5v-0.8c0.4,0.3,0.8,0.5,1.1,0.6c0.1,0,0.2,0.1,0.3,0.1c0.1,0,0.2,0,0.3,0c0.4,0,0.7-0.1,0.9-0.3
		c0.2-0.2,0.4-0.4,0.4-0.6c0-0.1,0-0.2-0.1-0.4c-0.1-0.2-0.5-0.3-1-0.4c-0.6-0.2-1.1-0.3-1.3-0.4c-0.4-0.2-0.6-0.6-0.6-1
		c0-0.4,0.2-0.7,0.5-1C56,70.1,56.5,70,57,70c0.2,0,0.5,0,0.6,0.1c0.2,0,0.4,0.1,0.5,0.2c0.2,0.1,0.3,0.2,0.5,0.3v0.8
		c-0.3-0.2-0.5-0.4-0.8-0.5c-0.3-0.1-0.6-0.2-0.9-0.2c-0.3,0-0.6,0.1-0.8,0.2c-0.2,0.1-0.3,0.3-0.3,0.5c0,0.3,0.3,0.5,0.8,0.7
		c0.3,0.1,0.5,0.1,0.7,0.2s0.5,0.1,0.7,0.2c0.5,0.2,0.8,0.6,0.8,1.1c0,0.4-0.2,0.8-0.6,1.1C58,74.9,57.5,75,57,75
		c-0.3,0-0.5,0-0.7-0.1C55.8,74.8,55.5,74.7,55.1,74.5z"/>
</g>
</svg>
